<mxfile host="app.diagrams.net" modified="2022-06-23T01:07:58.510Z" agent="5.0 (Macintosh)" etag="twZa5H4PchNFuz4me9vg" version="20.0.1" type="github" pages="7">
  <diagram id="JIbMGXdBo22jc9gWvNrv" name="NAND">
    <mxGraphModel dx="946" dy="587" grid="1" gridSize="10" guides="1" tooltips="1" connect="1" arrows="1" fold="1" page="1" pageScale="1" pageWidth="850" pageHeight="1100" math="0" shadow="0">
      <root>
        <mxCell id="0" />
        <mxCell id="1" parent="0" />
        <mxCell id="C3KPwQM-80ejblYfTAC--1" value="NAND(a,b)" style="shape=table;startSize=30;container=1;collapsible=0;childLayout=tableLayout;fontFamily=JetBrains Mono;fontStyle=1" vertex="1" parent="1">
          <mxGeometry x="450" y="80" width="180" height="180" as="geometry" />
        </mxCell>
        <mxCell id="C3KPwQM-80ejblYfTAC--2" value="" style="shape=tableRow;horizontal=0;startSize=0;swimlaneHead=0;swimlaneBody=0;top=0;left=0;bottom=0;right=0;collapsible=0;dropTarget=0;fillColor=none;points=[[0,0.5],[1,0.5]];portConstraint=eastwest;" vertex="1" parent="C3KPwQM-80ejblYfTAC--1">
          <mxGeometry y="30" width="180" height="30" as="geometry" />
        </mxCell>
        <mxCell id="C3KPwQM-80ejblYfTAC--3" value="a" style="shape=partialRectangle;html=1;whiteSpace=wrap;connectable=0;overflow=hidden;fillColor=none;top=0;left=0;bottom=0;right=0;pointerEvents=1;fontFamily=JetBrains Mono;fontStyle=2" vertex="1" parent="C3KPwQM-80ejblYfTAC--2">
          <mxGeometry width="60" height="30" as="geometry">
            <mxRectangle width="60" height="30" as="alternateBounds" />
          </mxGeometry>
        </mxCell>
        <mxCell id="C3KPwQM-80ejblYfTAC--4" value="b" style="shape=partialRectangle;html=1;whiteSpace=wrap;connectable=0;overflow=hidden;fillColor=none;top=0;left=0;bottom=0;right=0;pointerEvents=1;fontFamily=JetBrains Mono;fontStyle=2" vertex="1" parent="C3KPwQM-80ejblYfTAC--2">
          <mxGeometry x="60" width="60" height="30" as="geometry">
            <mxRectangle width="60" height="30" as="alternateBounds" />
          </mxGeometry>
        </mxCell>
        <mxCell id="C3KPwQM-80ejblYfTAC--5" value="out" style="shape=partialRectangle;html=1;whiteSpace=wrap;connectable=0;overflow=hidden;fillColor=none;top=0;left=0;bottom=0;right=0;pointerEvents=1;fontFamily=JetBrains Mono;fontStyle=2" vertex="1" parent="C3KPwQM-80ejblYfTAC--2">
          <mxGeometry x="120" width="60" height="30" as="geometry">
            <mxRectangle width="60" height="30" as="alternateBounds" />
          </mxGeometry>
        </mxCell>
        <mxCell id="C3KPwQM-80ejblYfTAC--6" value="" style="shape=tableRow;horizontal=0;startSize=0;swimlaneHead=0;swimlaneBody=0;top=0;left=0;bottom=0;right=0;collapsible=0;dropTarget=0;fillColor=none;points=[[0,0.5],[1,0.5]];portConstraint=eastwest;" vertex="1" parent="C3KPwQM-80ejblYfTAC--1">
          <mxGeometry y="60" width="180" height="30" as="geometry" />
        </mxCell>
        <mxCell id="C3KPwQM-80ejblYfTAC--7" value="0" style="shape=partialRectangle;html=1;whiteSpace=wrap;connectable=0;overflow=hidden;fillColor=none;top=0;left=0;bottom=0;right=0;pointerEvents=1;fontFamily=JetBrains Mono;" vertex="1" parent="C3KPwQM-80ejblYfTAC--6">
          <mxGeometry width="60" height="30" as="geometry">
            <mxRectangle width="60" height="30" as="alternateBounds" />
          </mxGeometry>
        </mxCell>
        <mxCell id="C3KPwQM-80ejblYfTAC--8" value="0" style="shape=partialRectangle;html=1;whiteSpace=wrap;connectable=0;overflow=hidden;fillColor=none;top=0;left=0;bottom=0;right=0;pointerEvents=1;fontFamily=JetBrains Mono;" vertex="1" parent="C3KPwQM-80ejblYfTAC--6">
          <mxGeometry x="60" width="60" height="30" as="geometry">
            <mxRectangle width="60" height="30" as="alternateBounds" />
          </mxGeometry>
        </mxCell>
        <mxCell id="C3KPwQM-80ejblYfTAC--9" value="1" style="shape=partialRectangle;html=1;whiteSpace=wrap;connectable=0;overflow=hidden;fillColor=none;top=0;left=0;bottom=0;right=0;pointerEvents=1;fontFamily=JetBrains Mono;" vertex="1" parent="C3KPwQM-80ejblYfTAC--6">
          <mxGeometry x="120" width="60" height="30" as="geometry">
            <mxRectangle width="60" height="30" as="alternateBounds" />
          </mxGeometry>
        </mxCell>
        <mxCell id="C3KPwQM-80ejblYfTAC--10" value="" style="shape=tableRow;horizontal=0;startSize=0;swimlaneHead=0;swimlaneBody=0;top=0;left=0;bottom=0;right=0;collapsible=0;dropTarget=0;fillColor=none;points=[[0,0.5],[1,0.5]];portConstraint=eastwest;" vertex="1" parent="C3KPwQM-80ejblYfTAC--1">
          <mxGeometry y="90" width="180" height="30" as="geometry" />
        </mxCell>
        <mxCell id="C3KPwQM-80ejblYfTAC--11" value="0" style="shape=partialRectangle;html=1;whiteSpace=wrap;connectable=0;overflow=hidden;fillColor=none;top=0;left=0;bottom=0;right=0;pointerEvents=1;fontFamily=JetBrains Mono;" vertex="1" parent="C3KPwQM-80ejblYfTAC--10">
          <mxGeometry width="60" height="30" as="geometry">
            <mxRectangle width="60" height="30" as="alternateBounds" />
          </mxGeometry>
        </mxCell>
        <mxCell id="C3KPwQM-80ejblYfTAC--12" value="1" style="shape=partialRectangle;html=1;whiteSpace=wrap;connectable=0;overflow=hidden;fillColor=none;top=0;left=0;bottom=0;right=0;pointerEvents=1;fontFamily=JetBrains Mono;" vertex="1" parent="C3KPwQM-80ejblYfTAC--10">
          <mxGeometry x="60" width="60" height="30" as="geometry">
            <mxRectangle width="60" height="30" as="alternateBounds" />
          </mxGeometry>
        </mxCell>
        <mxCell id="C3KPwQM-80ejblYfTAC--13" value="1" style="shape=partialRectangle;html=1;whiteSpace=wrap;connectable=0;overflow=hidden;fillColor=none;top=0;left=0;bottom=0;right=0;pointerEvents=1;fontFamily=JetBrains Mono;" vertex="1" parent="C3KPwQM-80ejblYfTAC--10">
          <mxGeometry x="120" width="60" height="30" as="geometry">
            <mxRectangle width="60" height="30" as="alternateBounds" />
          </mxGeometry>
        </mxCell>
        <mxCell id="C3KPwQM-80ejblYfTAC--14" value="" style="shape=tableRow;horizontal=0;startSize=0;swimlaneHead=0;swimlaneBody=0;top=0;left=0;bottom=0;right=0;collapsible=0;dropTarget=0;fillColor=none;points=[[0,0.5],[1,0.5]];portConstraint=eastwest;" vertex="1" parent="C3KPwQM-80ejblYfTAC--1">
          <mxGeometry y="120" width="180" height="30" as="geometry" />
        </mxCell>
        <mxCell id="C3KPwQM-80ejblYfTAC--15" value="1" style="shape=partialRectangle;html=1;whiteSpace=wrap;connectable=0;overflow=hidden;fillColor=none;top=0;left=0;bottom=0;right=0;pointerEvents=1;fontFamily=JetBrains Mono;" vertex="1" parent="C3KPwQM-80ejblYfTAC--14">
          <mxGeometry width="60" height="30" as="geometry">
            <mxRectangle width="60" height="30" as="alternateBounds" />
          </mxGeometry>
        </mxCell>
        <mxCell id="C3KPwQM-80ejblYfTAC--16" value="0" style="shape=partialRectangle;html=1;whiteSpace=wrap;connectable=0;overflow=hidden;fillColor=none;top=0;left=0;bottom=0;right=0;pointerEvents=1;fontFamily=JetBrains Mono;" vertex="1" parent="C3KPwQM-80ejblYfTAC--14">
          <mxGeometry x="60" width="60" height="30" as="geometry">
            <mxRectangle width="60" height="30" as="alternateBounds" />
          </mxGeometry>
        </mxCell>
        <mxCell id="C3KPwQM-80ejblYfTAC--17" value="1" style="shape=partialRectangle;html=1;whiteSpace=wrap;connectable=0;overflow=hidden;fillColor=none;top=0;left=0;bottom=0;right=0;pointerEvents=1;fontFamily=JetBrains Mono;" vertex="1" parent="C3KPwQM-80ejblYfTAC--14">
          <mxGeometry x="120" width="60" height="30" as="geometry">
            <mxRectangle width="60" height="30" as="alternateBounds" />
          </mxGeometry>
        </mxCell>
        <mxCell id="C3KPwQM-80ejblYfTAC--18" style="shape=tableRow;horizontal=0;startSize=0;swimlaneHead=0;swimlaneBody=0;top=0;left=0;bottom=0;right=0;collapsible=0;dropTarget=0;fillColor=none;points=[[0,0.5],[1,0.5]];portConstraint=eastwest;" vertex="1" parent="C3KPwQM-80ejblYfTAC--1">
          <mxGeometry y="150" width="180" height="30" as="geometry" />
        </mxCell>
        <mxCell id="C3KPwQM-80ejblYfTAC--19" value="1" style="shape=partialRectangle;html=1;whiteSpace=wrap;connectable=0;overflow=hidden;fillColor=none;top=0;left=0;bottom=0;right=0;pointerEvents=1;fontFamily=JetBrains Mono;" vertex="1" parent="C3KPwQM-80ejblYfTAC--18">
          <mxGeometry width="60" height="30" as="geometry">
            <mxRectangle width="60" height="30" as="alternateBounds" />
          </mxGeometry>
        </mxCell>
        <mxCell id="C3KPwQM-80ejblYfTAC--20" value="1" style="shape=partialRectangle;html=1;whiteSpace=wrap;connectable=0;overflow=hidden;fillColor=none;top=0;left=0;bottom=0;right=0;pointerEvents=1;fontFamily=JetBrains Mono;" vertex="1" parent="C3KPwQM-80ejblYfTAC--18">
          <mxGeometry x="60" width="60" height="30" as="geometry">
            <mxRectangle width="60" height="30" as="alternateBounds" />
          </mxGeometry>
        </mxCell>
        <mxCell id="C3KPwQM-80ejblYfTAC--21" value="0" style="shape=partialRectangle;html=1;whiteSpace=wrap;connectable=0;overflow=hidden;fillColor=none;top=0;left=0;bottom=0;right=0;pointerEvents=1;fontFamily=JetBrains Mono;" vertex="1" parent="C3KPwQM-80ejblYfTAC--18">
          <mxGeometry x="120" width="60" height="30" as="geometry">
            <mxRectangle width="60" height="30" as="alternateBounds" />
          </mxGeometry>
        </mxCell>
        <mxCell id="C3KPwQM-80ejblYfTAC--22" value="" style="shape=or;whiteSpace=wrap;html=1;fontFamily=JetBrains Mono;" vertex="1" parent="1">
          <mxGeometry x="280" y="80" width="80" height="120" as="geometry" />
        </mxCell>
        <mxCell id="C3KPwQM-80ejblYfTAC--23" value="" style="ellipse;whiteSpace=wrap;html=1;aspect=fixed;fontFamily=JetBrains Mono;" vertex="1" parent="1">
          <mxGeometry x="360" y="135" width="10" height="10" as="geometry" />
        </mxCell>
        <mxCell id="C3KPwQM-80ejblYfTAC--24" value="" style="endArrow=classic;html=1;rounded=0;fontFamily=JetBrains Mono;strokeWidth=2;" edge="1" parent="1">
          <mxGeometry width="50" height="50" relative="1" as="geometry">
            <mxPoint x="230" y="109" as="sourcePoint" />
            <mxPoint x="280" y="109" as="targetPoint" />
          </mxGeometry>
        </mxCell>
        <mxCell id="C3KPwQM-80ejblYfTAC--25" value="" style="endArrow=classic;html=1;rounded=0;fontFamily=JetBrains Mono;strokeWidth=2;" edge="1" parent="1">
          <mxGeometry width="50" height="50" relative="1" as="geometry">
            <mxPoint x="230" y="169" as="sourcePoint" />
            <mxPoint x="280" y="169" as="targetPoint" />
          </mxGeometry>
        </mxCell>
        <mxCell id="C3KPwQM-80ejblYfTAC--26" value="&lt;b&gt;NAND&lt;/b&gt;" style="text;html=1;strokeColor=none;fillColor=none;align=center;verticalAlign=middle;whiteSpace=wrap;rounded=0;fontFamily=JetBrains Mono;" vertex="1" parent="1">
          <mxGeometry x="290" y="125" width="60" height="30" as="geometry" />
        </mxCell>
        <mxCell id="C3KPwQM-80ejblYfTAC--27" value="&lt;i&gt;a&lt;/i&gt;" style="text;html=1;strokeColor=none;fillColor=none;align=center;verticalAlign=middle;whiteSpace=wrap;rounded=0;fontFamily=JetBrains Mono;" vertex="1" parent="1">
          <mxGeometry x="210" y="89" width="20" height="20" as="geometry" />
        </mxCell>
        <mxCell id="C3KPwQM-80ejblYfTAC--28" value="&lt;i&gt;b&lt;/i&gt;" style="text;html=1;strokeColor=none;fillColor=none;align=center;verticalAlign=middle;whiteSpace=wrap;rounded=0;fontFamily=JetBrains Mono;" vertex="1" parent="1">
          <mxGeometry x="210" y="149" width="20" height="20" as="geometry" />
        </mxCell>
        <mxCell id="C3KPwQM-80ejblYfTAC--29" value="&lt;i&gt;out&lt;/i&gt;" style="text;html=1;strokeColor=none;fillColor=none;align=center;verticalAlign=middle;whiteSpace=wrap;rounded=0;fontFamily=JetBrains Mono;" vertex="1" parent="1">
          <mxGeometry x="395" y="145" width="40" height="20" as="geometry" />
        </mxCell>
        <mxCell id="C3KPwQM-80ejblYfTAC--30" value="" style="endArrow=classic;html=1;rounded=0;fontFamily=JetBrains Mono;strokeWidth=2;" edge="1" parent="1">
          <mxGeometry width="50" height="50" relative="1" as="geometry">
            <mxPoint x="370" y="140" as="sourcePoint" />
            <mxPoint x="420" y="140" as="targetPoint" />
          </mxGeometry>
        </mxCell>
      </root>
    </mxGraphModel>
  </diagram>
  <diagram id="OPUmSVZi67gQt2YKc5tr" name="NOT">
    <mxGraphModel dx="946" dy="587" grid="1" gridSize="10" guides="1" tooltips="1" connect="1" arrows="1" fold="1" page="1" pageScale="1" pageWidth="850" pageHeight="1100" math="0" shadow="0">
      <root>
        <mxCell id="0" />
        <mxCell id="1" parent="0" />
        <mxCell id="16ZkXzFOUiWSgwjegtp7-1" value="" style="rounded=0;whiteSpace=wrap;html=1;labelBorderColor=none;fontFamily=JetBrains Mono;fontSize=13;" parent="1" vertex="1">
          <mxGeometry x="295" y="210" width="260" height="30" as="geometry" />
        </mxCell>
        <mxCell id="16ZkXzFOUiWSgwjegtp7-2" value="NOT(in)" style="shape=table;startSize=30;container=1;collapsible=0;childLayout=tableLayout;fontStyle=1;align=center;fontSize=13;fontFamily=JetBrains Mono;" parent="1" vertex="1">
          <mxGeometry x="480" y="80" width="120" height="120" as="geometry" />
        </mxCell>
        <mxCell id="16ZkXzFOUiWSgwjegtp7-3" value="" style="shape=tableRow;horizontal=0;startSize=0;swimlaneHead=0;swimlaneBody=0;top=0;left=0;bottom=0;right=0;collapsible=0;dropTarget=0;fillColor=none;points=[[0,0.5],[1,0.5]];portConstraint=eastwest;fontSize=13;" parent="16ZkXzFOUiWSgwjegtp7-2" vertex="1">
          <mxGeometry y="30" width="120" height="30" as="geometry" />
        </mxCell>
        <mxCell id="16ZkXzFOUiWSgwjegtp7-4" value="in" style="shape=partialRectangle;html=1;whiteSpace=wrap;connectable=0;fillColor=none;top=0;left=0;bottom=0;right=0;overflow=hidden;fontSize=13;fontFamily=JetBrains Mono;fontStyle=2" parent="16ZkXzFOUiWSgwjegtp7-3" vertex="1">
          <mxGeometry width="60" height="30" as="geometry">
            <mxRectangle width="60" height="30" as="alternateBounds" />
          </mxGeometry>
        </mxCell>
        <mxCell id="16ZkXzFOUiWSgwjegtp7-5" value="out" style="shape=partialRectangle;html=1;whiteSpace=wrap;connectable=0;fillColor=none;top=0;left=0;bottom=0;right=0;overflow=hidden;fontSize=13;fontFamily=JetBrains Mono;fontStyle=2" parent="16ZkXzFOUiWSgwjegtp7-3" vertex="1">
          <mxGeometry x="60" width="60" height="30" as="geometry">
            <mxRectangle width="60" height="30" as="alternateBounds" />
          </mxGeometry>
        </mxCell>
        <mxCell id="16ZkXzFOUiWSgwjegtp7-6" value="" style="shape=tableRow;horizontal=0;startSize=0;swimlaneHead=0;swimlaneBody=0;top=0;left=0;bottom=0;right=0;collapsible=0;dropTarget=0;fillColor=none;points=[[0,0.5],[1,0.5]];portConstraint=eastwest;fontSize=13;" parent="16ZkXzFOUiWSgwjegtp7-2" vertex="1">
          <mxGeometry y="60" width="120" height="30" as="geometry" />
        </mxCell>
        <mxCell id="16ZkXzFOUiWSgwjegtp7-7" value="1" style="shape=partialRectangle;html=1;whiteSpace=wrap;connectable=0;fillColor=none;top=0;left=0;bottom=0;right=0;overflow=hidden;fontSize=13;fontFamily=JetBrains Mono;" parent="16ZkXzFOUiWSgwjegtp7-6" vertex="1">
          <mxGeometry width="60" height="30" as="geometry">
            <mxRectangle width="60" height="30" as="alternateBounds" />
          </mxGeometry>
        </mxCell>
        <mxCell id="16ZkXzFOUiWSgwjegtp7-8" value="0" style="shape=partialRectangle;html=1;whiteSpace=wrap;connectable=0;fillColor=none;top=0;left=0;bottom=0;right=0;overflow=hidden;fontSize=13;fontFamily=JetBrains Mono;" parent="16ZkXzFOUiWSgwjegtp7-6" vertex="1">
          <mxGeometry x="60" width="60" height="30" as="geometry">
            <mxRectangle width="60" height="30" as="alternateBounds" />
          </mxGeometry>
        </mxCell>
        <mxCell id="16ZkXzFOUiWSgwjegtp7-9" value="" style="shape=tableRow;horizontal=0;startSize=0;swimlaneHead=0;swimlaneBody=0;top=0;left=0;bottom=0;right=0;collapsible=0;dropTarget=0;fillColor=none;points=[[0,0.5],[1,0.5]];portConstraint=eastwest;fontSize=13;" parent="16ZkXzFOUiWSgwjegtp7-2" vertex="1">
          <mxGeometry y="90" width="120" height="30" as="geometry" />
        </mxCell>
        <mxCell id="16ZkXzFOUiWSgwjegtp7-10" value="0" style="shape=partialRectangle;html=1;whiteSpace=wrap;connectable=0;fillColor=none;top=0;left=0;bottom=0;right=0;overflow=hidden;fontSize=13;fontFamily=JetBrains Mono;" parent="16ZkXzFOUiWSgwjegtp7-9" vertex="1">
          <mxGeometry width="60" height="30" as="geometry">
            <mxRectangle width="60" height="30" as="alternateBounds" />
          </mxGeometry>
        </mxCell>
        <mxCell id="16ZkXzFOUiWSgwjegtp7-11" value="1" style="shape=partialRectangle;html=1;whiteSpace=wrap;connectable=0;fillColor=none;top=0;left=0;bottom=0;right=0;overflow=hidden;fontSize=13;fontFamily=JetBrains Mono;" parent="16ZkXzFOUiWSgwjegtp7-9" vertex="1">
          <mxGeometry x="60" width="60" height="30" as="geometry">
            <mxRectangle width="60" height="30" as="alternateBounds" />
          </mxGeometry>
        </mxCell>
        <mxCell id="16ZkXzFOUiWSgwjegtp7-12" value="" style="triangle;whiteSpace=wrap;html=1;fontFamily=JetBrains Mono;fontSize=13;" parent="1" vertex="1">
          <mxGeometry x="280" y="80" width="90" height="120" as="geometry" />
        </mxCell>
        <mxCell id="16ZkXzFOUiWSgwjegtp7-13" value="" style="ellipse;whiteSpace=wrap;html=1;aspect=fixed;fontFamily=JetBrains Mono;fontSize=13;" parent="1" vertex="1">
          <mxGeometry x="370" y="135" width="10" height="10" as="geometry" />
        </mxCell>
        <mxCell id="16ZkXzFOUiWSgwjegtp7-14" value="" style="endArrow=classic;html=1;rounded=0;fontFamily=JetBrains Mono;fontSize=13;entryX=0;entryY=0.5;entryDx=0;entryDy=0;strokeWidth=2;" parent="1" target="16ZkXzFOUiWSgwjegtp7-12" edge="1">
          <mxGeometry width="50" height="50" relative="1" as="geometry">
            <mxPoint x="230" y="140" as="sourcePoint" />
            <mxPoint x="250" y="120" as="targetPoint" />
          </mxGeometry>
        </mxCell>
        <mxCell id="16ZkXzFOUiWSgwjegtp7-15" value="" style="endArrow=classic;html=1;rounded=0;fontFamily=JetBrains Mono;fontSize=13;strokeWidth=2;" parent="1" edge="1">
          <mxGeometry width="50" height="50" relative="1" as="geometry">
            <mxPoint x="380" y="139.5" as="sourcePoint" />
            <mxPoint x="420" y="140" as="targetPoint" />
          </mxGeometry>
        </mxCell>
        <mxCell id="16ZkXzFOUiWSgwjegtp7-16" value="&lt;b&gt;NOT&lt;/b&gt;" style="text;html=1;strokeColor=none;fillColor=none;align=center;verticalAlign=middle;whiteSpace=wrap;rounded=0;fontFamily=JetBrains Mono;fontSize=13;" parent="1" vertex="1">
          <mxGeometry x="285" y="125" width="60" height="30" as="geometry" />
        </mxCell>
        <mxCell id="16ZkXzFOUiWSgwjegtp7-17" value="&lt;i&gt;out&lt;/i&gt;" style="text;html=1;strokeColor=none;fillColor=none;align=center;verticalAlign=middle;whiteSpace=wrap;rounded=0;fontFamily=JetBrains Mono;fontSize=13;" parent="1" vertex="1">
          <mxGeometry x="405" y="140" width="60" height="30" as="geometry" />
        </mxCell>
        <mxCell id="16ZkXzFOUiWSgwjegtp7-18" value="NOT(&lt;i&gt;in&lt;/i&gt;) = NAND(&lt;i&gt;in&lt;/i&gt;, &lt;i&gt;in&lt;/i&gt;)" style="text;html=1;strokeColor=none;fillColor=none;align=center;verticalAlign=middle;whiteSpace=wrap;rounded=0;fontFamily=JetBrains Mono;fontSize=13;labelBorderColor=none;" parent="1" vertex="1">
          <mxGeometry x="300" y="210" width="250" height="30" as="geometry" />
        </mxCell>
        <mxCell id="PozgKijt8eK-IBBlHufm-1" value="&lt;i&gt;in&lt;/i&gt;" style="text;html=1;strokeColor=none;fillColor=none;align=center;verticalAlign=middle;whiteSpace=wrap;rounded=0;fontFamily=JetBrains Mono;fontSize=13;" parent="1" vertex="1">
          <mxGeometry x="190" y="110" width="60" height="30" as="geometry" />
        </mxCell>
      </root>
    </mxGraphModel>
  </diagram>
  <diagram id="qSMi0WlrK13bdt7H2_j3" name="AND">
    <mxGraphModel dx="946" dy="587" grid="1" gridSize="10" guides="1" tooltips="1" connect="1" arrows="1" fold="1" page="1" pageScale="1" pageWidth="850" pageHeight="1100" math="0" shadow="0">
      <root>
        <mxCell id="0" />
        <mxCell id="1" parent="0" />
        <mxCell id="b4pHZL9iYf9OARTyLTwh-1" value="AND(a,b)" style="shape=table;startSize=30;container=1;collapsible=0;childLayout=tableLayout;fontFamily=JetBrains Mono;fontStyle=1" parent="1" vertex="1">
          <mxGeometry x="450" y="80" width="180" height="180" as="geometry" />
        </mxCell>
        <mxCell id="b4pHZL9iYf9OARTyLTwh-2" value="" style="shape=tableRow;horizontal=0;startSize=0;swimlaneHead=0;swimlaneBody=0;top=0;left=0;bottom=0;right=0;collapsible=0;dropTarget=0;fillColor=none;points=[[0,0.5],[1,0.5]];portConstraint=eastwest;" parent="b4pHZL9iYf9OARTyLTwh-1" vertex="1">
          <mxGeometry y="30" width="180" height="30" as="geometry" />
        </mxCell>
        <mxCell id="b4pHZL9iYf9OARTyLTwh-3" value="a" style="shape=partialRectangle;html=1;whiteSpace=wrap;connectable=0;overflow=hidden;fillColor=none;top=0;left=0;bottom=0;right=0;pointerEvents=1;fontFamily=JetBrains Mono;fontStyle=2" parent="b4pHZL9iYf9OARTyLTwh-2" vertex="1">
          <mxGeometry width="60" height="30" as="geometry">
            <mxRectangle width="60" height="30" as="alternateBounds" />
          </mxGeometry>
        </mxCell>
        <mxCell id="b4pHZL9iYf9OARTyLTwh-4" value="b" style="shape=partialRectangle;html=1;whiteSpace=wrap;connectable=0;overflow=hidden;fillColor=none;top=0;left=0;bottom=0;right=0;pointerEvents=1;fontFamily=JetBrains Mono;fontStyle=2" parent="b4pHZL9iYf9OARTyLTwh-2" vertex="1">
          <mxGeometry x="60" width="60" height="30" as="geometry">
            <mxRectangle width="60" height="30" as="alternateBounds" />
          </mxGeometry>
        </mxCell>
        <mxCell id="b4pHZL9iYf9OARTyLTwh-5" value="out" style="shape=partialRectangle;html=1;whiteSpace=wrap;connectable=0;overflow=hidden;fillColor=none;top=0;left=0;bottom=0;right=0;pointerEvents=1;fontFamily=JetBrains Mono;fontStyle=2" parent="b4pHZL9iYf9OARTyLTwh-2" vertex="1">
          <mxGeometry x="120" width="60" height="30" as="geometry">
            <mxRectangle width="60" height="30" as="alternateBounds" />
          </mxGeometry>
        </mxCell>
        <mxCell id="b4pHZL9iYf9OARTyLTwh-6" value="" style="shape=tableRow;horizontal=0;startSize=0;swimlaneHead=0;swimlaneBody=0;top=0;left=0;bottom=0;right=0;collapsible=0;dropTarget=0;fillColor=none;points=[[0,0.5],[1,0.5]];portConstraint=eastwest;" parent="b4pHZL9iYf9OARTyLTwh-1" vertex="1">
          <mxGeometry y="60" width="180" height="30" as="geometry" />
        </mxCell>
        <mxCell id="b4pHZL9iYf9OARTyLTwh-7" value="0" style="shape=partialRectangle;html=1;whiteSpace=wrap;connectable=0;overflow=hidden;fillColor=none;top=0;left=0;bottom=0;right=0;pointerEvents=1;fontFamily=JetBrains Mono;" parent="b4pHZL9iYf9OARTyLTwh-6" vertex="1">
          <mxGeometry width="60" height="30" as="geometry">
            <mxRectangle width="60" height="30" as="alternateBounds" />
          </mxGeometry>
        </mxCell>
        <mxCell id="b4pHZL9iYf9OARTyLTwh-8" value="0" style="shape=partialRectangle;html=1;whiteSpace=wrap;connectable=0;overflow=hidden;fillColor=none;top=0;left=0;bottom=0;right=0;pointerEvents=1;fontFamily=JetBrains Mono;" parent="b4pHZL9iYf9OARTyLTwh-6" vertex="1">
          <mxGeometry x="60" width="60" height="30" as="geometry">
            <mxRectangle width="60" height="30" as="alternateBounds" />
          </mxGeometry>
        </mxCell>
        <mxCell id="b4pHZL9iYf9OARTyLTwh-9" value="0" style="shape=partialRectangle;html=1;whiteSpace=wrap;connectable=0;overflow=hidden;fillColor=none;top=0;left=0;bottom=0;right=0;pointerEvents=1;fontFamily=JetBrains Mono;" parent="b4pHZL9iYf9OARTyLTwh-6" vertex="1">
          <mxGeometry x="120" width="60" height="30" as="geometry">
            <mxRectangle width="60" height="30" as="alternateBounds" />
          </mxGeometry>
        </mxCell>
        <mxCell id="b4pHZL9iYf9OARTyLTwh-10" value="" style="shape=tableRow;horizontal=0;startSize=0;swimlaneHead=0;swimlaneBody=0;top=0;left=0;bottom=0;right=0;collapsible=0;dropTarget=0;fillColor=none;points=[[0,0.5],[1,0.5]];portConstraint=eastwest;" parent="b4pHZL9iYf9OARTyLTwh-1" vertex="1">
          <mxGeometry y="90" width="180" height="30" as="geometry" />
        </mxCell>
        <mxCell id="b4pHZL9iYf9OARTyLTwh-11" value="0" style="shape=partialRectangle;html=1;whiteSpace=wrap;connectable=0;overflow=hidden;fillColor=none;top=0;left=0;bottom=0;right=0;pointerEvents=1;fontFamily=JetBrains Mono;" parent="b4pHZL9iYf9OARTyLTwh-10" vertex="1">
          <mxGeometry width="60" height="30" as="geometry">
            <mxRectangle width="60" height="30" as="alternateBounds" />
          </mxGeometry>
        </mxCell>
        <mxCell id="b4pHZL9iYf9OARTyLTwh-12" value="1" style="shape=partialRectangle;html=1;whiteSpace=wrap;connectable=0;overflow=hidden;fillColor=none;top=0;left=0;bottom=0;right=0;pointerEvents=1;fontFamily=JetBrains Mono;" parent="b4pHZL9iYf9OARTyLTwh-10" vertex="1">
          <mxGeometry x="60" width="60" height="30" as="geometry">
            <mxRectangle width="60" height="30" as="alternateBounds" />
          </mxGeometry>
        </mxCell>
        <mxCell id="b4pHZL9iYf9OARTyLTwh-13" value="0" style="shape=partialRectangle;html=1;whiteSpace=wrap;connectable=0;overflow=hidden;fillColor=none;top=0;left=0;bottom=0;right=0;pointerEvents=1;fontFamily=JetBrains Mono;" parent="b4pHZL9iYf9OARTyLTwh-10" vertex="1">
          <mxGeometry x="120" width="60" height="30" as="geometry">
            <mxRectangle width="60" height="30" as="alternateBounds" />
          </mxGeometry>
        </mxCell>
        <mxCell id="b4pHZL9iYf9OARTyLTwh-14" value="" style="shape=tableRow;horizontal=0;startSize=0;swimlaneHead=0;swimlaneBody=0;top=0;left=0;bottom=0;right=0;collapsible=0;dropTarget=0;fillColor=none;points=[[0,0.5],[1,0.5]];portConstraint=eastwest;" parent="b4pHZL9iYf9OARTyLTwh-1" vertex="1">
          <mxGeometry y="120" width="180" height="30" as="geometry" />
        </mxCell>
        <mxCell id="b4pHZL9iYf9OARTyLTwh-15" value="1" style="shape=partialRectangle;html=1;whiteSpace=wrap;connectable=0;overflow=hidden;fillColor=none;top=0;left=0;bottom=0;right=0;pointerEvents=1;fontFamily=JetBrains Mono;" parent="b4pHZL9iYf9OARTyLTwh-14" vertex="1">
          <mxGeometry width="60" height="30" as="geometry">
            <mxRectangle width="60" height="30" as="alternateBounds" />
          </mxGeometry>
        </mxCell>
        <mxCell id="b4pHZL9iYf9OARTyLTwh-16" value="0" style="shape=partialRectangle;html=1;whiteSpace=wrap;connectable=0;overflow=hidden;fillColor=none;top=0;left=0;bottom=0;right=0;pointerEvents=1;fontFamily=JetBrains Mono;" parent="b4pHZL9iYf9OARTyLTwh-14" vertex="1">
          <mxGeometry x="60" width="60" height="30" as="geometry">
            <mxRectangle width="60" height="30" as="alternateBounds" />
          </mxGeometry>
        </mxCell>
        <mxCell id="b4pHZL9iYf9OARTyLTwh-17" value="0" style="shape=partialRectangle;html=1;whiteSpace=wrap;connectable=0;overflow=hidden;fillColor=none;top=0;left=0;bottom=0;right=0;pointerEvents=1;fontFamily=JetBrains Mono;" parent="b4pHZL9iYf9OARTyLTwh-14" vertex="1">
          <mxGeometry x="120" width="60" height="30" as="geometry">
            <mxRectangle width="60" height="30" as="alternateBounds" />
          </mxGeometry>
        </mxCell>
        <mxCell id="b4pHZL9iYf9OARTyLTwh-18" style="shape=tableRow;horizontal=0;startSize=0;swimlaneHead=0;swimlaneBody=0;top=0;left=0;bottom=0;right=0;collapsible=0;dropTarget=0;fillColor=none;points=[[0,0.5],[1,0.5]];portConstraint=eastwest;" parent="b4pHZL9iYf9OARTyLTwh-1" vertex="1">
          <mxGeometry y="150" width="180" height="30" as="geometry" />
        </mxCell>
        <mxCell id="b4pHZL9iYf9OARTyLTwh-19" value="1" style="shape=partialRectangle;html=1;whiteSpace=wrap;connectable=0;overflow=hidden;fillColor=none;top=0;left=0;bottom=0;right=0;pointerEvents=1;fontFamily=JetBrains Mono;" parent="b4pHZL9iYf9OARTyLTwh-18" vertex="1">
          <mxGeometry width="60" height="30" as="geometry">
            <mxRectangle width="60" height="30" as="alternateBounds" />
          </mxGeometry>
        </mxCell>
        <mxCell id="b4pHZL9iYf9OARTyLTwh-20" value="1" style="shape=partialRectangle;html=1;whiteSpace=wrap;connectable=0;overflow=hidden;fillColor=none;top=0;left=0;bottom=0;right=0;pointerEvents=1;fontFamily=JetBrains Mono;" parent="b4pHZL9iYf9OARTyLTwh-18" vertex="1">
          <mxGeometry x="60" width="60" height="30" as="geometry">
            <mxRectangle width="60" height="30" as="alternateBounds" />
          </mxGeometry>
        </mxCell>
        <mxCell id="b4pHZL9iYf9OARTyLTwh-21" value="1" style="shape=partialRectangle;html=1;whiteSpace=wrap;connectable=0;overflow=hidden;fillColor=none;top=0;left=0;bottom=0;right=0;pointerEvents=1;fontFamily=JetBrains Mono;" parent="b4pHZL9iYf9OARTyLTwh-18" vertex="1">
          <mxGeometry x="120" width="60" height="30" as="geometry">
            <mxRectangle width="60" height="30" as="alternateBounds" />
          </mxGeometry>
        </mxCell>
        <mxCell id="b4pHZL9iYf9OARTyLTwh-22" value="" style="shape=or;whiteSpace=wrap;html=1;fontFamily=JetBrains Mono;" parent="1" vertex="1">
          <mxGeometry x="280" y="80" width="80" height="120" as="geometry" />
        </mxCell>
        <mxCell id="b4pHZL9iYf9OARTyLTwh-24" value="" style="endArrow=classic;html=1;rounded=0;fontFamily=JetBrains Mono;strokeWidth=2;" parent="1" edge="1">
          <mxGeometry width="50" height="50" relative="1" as="geometry">
            <mxPoint x="230" y="109" as="sourcePoint" />
            <mxPoint x="280" y="109" as="targetPoint" />
          </mxGeometry>
        </mxCell>
        <mxCell id="b4pHZL9iYf9OARTyLTwh-25" value="" style="endArrow=classic;html=1;rounded=0;fontFamily=JetBrains Mono;strokeWidth=2;" parent="1" edge="1">
          <mxGeometry width="50" height="50" relative="1" as="geometry">
            <mxPoint x="230" y="168" as="sourcePoint" />
            <mxPoint x="280" y="168" as="targetPoint" />
          </mxGeometry>
        </mxCell>
        <mxCell id="b4pHZL9iYf9OARTyLTwh-26" value="&lt;b&gt;AND&lt;/b&gt;" style="text;html=1;strokeColor=none;fillColor=none;align=center;verticalAlign=middle;whiteSpace=wrap;rounded=0;fontFamily=JetBrains Mono;" parent="1" vertex="1">
          <mxGeometry x="290" y="125" width="60" height="30" as="geometry" />
        </mxCell>
        <mxCell id="b4pHZL9iYf9OARTyLTwh-27" value="&lt;i&gt;a&lt;/i&gt;" style="text;html=1;strokeColor=none;fillColor=none;align=center;verticalAlign=middle;whiteSpace=wrap;rounded=0;fontFamily=JetBrains Mono;" parent="1" vertex="1">
          <mxGeometry x="210" y="89" width="20" height="20" as="geometry" />
        </mxCell>
        <mxCell id="b4pHZL9iYf9OARTyLTwh-28" value="&lt;i&gt;b&lt;/i&gt;" style="text;html=1;strokeColor=none;fillColor=none;align=center;verticalAlign=middle;whiteSpace=wrap;rounded=0;fontFamily=JetBrains Mono;" parent="1" vertex="1">
          <mxGeometry x="210" y="148" width="20" height="20" as="geometry" />
        </mxCell>
        <mxCell id="b4pHZL9iYf9OARTyLTwh-29" value="&lt;i&gt;out&lt;/i&gt;" style="text;html=1;strokeColor=none;fillColor=none;align=center;verticalAlign=middle;whiteSpace=wrap;rounded=0;fontFamily=JetBrains Mono;" parent="1" vertex="1">
          <mxGeometry x="391" y="145" width="40" height="20" as="geometry" />
        </mxCell>
        <mxCell id="b4pHZL9iYf9OARTyLTwh-30" value="" style="endArrow=classic;html=1;rounded=0;fontFamily=JetBrains Mono;strokeWidth=2;" parent="1" edge="1">
          <mxGeometry width="50" height="50" relative="1" as="geometry">
            <mxPoint x="360" y="140" as="sourcePoint" />
            <mxPoint x="410" y="140" as="targetPoint" />
          </mxGeometry>
        </mxCell>
        <mxCell id="N_MH0g01b1f0Kij2voba-1" value="" style="rounded=0;whiteSpace=wrap;html=1;" vertex="1" parent="1">
          <mxGeometry x="280" y="270" width="300" height="30" as="geometry" />
        </mxCell>
        <mxCell id="N_MH0g01b1f0Kij2voba-2" value="&lt;font face=&quot;JetBrains Mono&quot;&gt;AND(&lt;i&gt;a,b&lt;/i&gt;) = NOT(NAND(&lt;i&gt;a,b&lt;/i&gt;))&lt;/font&gt;" style="text;html=1;strokeColor=none;fillColor=none;align=center;verticalAlign=middle;whiteSpace=wrap;rounded=0;" vertex="1" parent="1">
          <mxGeometry x="290" y="270" width="280" height="30" as="geometry" />
        </mxCell>
      </root>
    </mxGraphModel>
  </diagram>
  <diagram id="QIEkigXj3iEKXuPoyTWM" name="OR">
    <mxGraphModel dx="946" dy="587" grid="1" gridSize="10" guides="1" tooltips="1" connect="1" arrows="1" fold="1" page="1" pageScale="1" pageWidth="850" pageHeight="1100" math="0" shadow="0">
      <root>
        <mxCell id="0" />
        <mxCell id="1" parent="0" />
        <mxCell id="VnVhbQ7o1FZ07oHjpgqJ-1" value="" style="endArrow=classic;html=1;rounded=0;fontFamily=JetBrains Mono;strokeWidth=2;" edge="1" parent="1">
          <mxGeometry width="50" height="50" relative="1" as="geometry">
            <mxPoint x="237" y="170" as="sourcePoint" />
            <mxPoint x="287" y="170" as="targetPoint" />
          </mxGeometry>
        </mxCell>
        <mxCell id="VnVhbQ7o1FZ07oHjpgqJ-2" value="" style="endArrow=classic;html=1;rounded=0;fontFamily=JetBrains Mono;strokeWidth=2;" edge="1" parent="1">
          <mxGeometry width="50" height="50" relative="1" as="geometry">
            <mxPoint x="237" y="110" as="sourcePoint" />
            <mxPoint x="287" y="110" as="targetPoint" />
          </mxGeometry>
        </mxCell>
        <mxCell id="VnVhbQ7o1FZ07oHjpgqJ-3" value="" style="endArrow=classic;html=1;rounded=0;fontFamily=JetBrains Mono;strokeWidth=2;" edge="1" parent="1">
          <mxGeometry width="50" height="50" relative="1" as="geometry">
            <mxPoint x="361" y="140.5" as="sourcePoint" />
            <mxPoint x="411" y="140.5" as="targetPoint" />
          </mxGeometry>
        </mxCell>
        <mxCell id="VnVhbQ7o1FZ07oHjpgqJ-4" value="&lt;b&gt;OR&lt;/b&gt;" style="text;html=1;strokeColor=none;fillColor=none;align=center;verticalAlign=middle;whiteSpace=wrap;rounded=0;fontFamily=JetBrains Mono;" vertex="1" parent="1">
          <mxGeometry x="300" y="125" width="60" height="30" as="geometry" />
        </mxCell>
        <mxCell id="VnVhbQ7o1FZ07oHjpgqJ-5" value="&lt;i&gt;a&lt;/i&gt;" style="text;html=1;strokeColor=none;fillColor=none;align=center;verticalAlign=middle;whiteSpace=wrap;rounded=0;fontFamily=JetBrains Mono;" vertex="1" parent="1">
          <mxGeometry x="203" y="86" width="60" height="30" as="geometry" />
        </mxCell>
        <mxCell id="VnVhbQ7o1FZ07oHjpgqJ-6" value="&lt;i&gt;b&lt;/i&gt;" style="text;html=1;strokeColor=none;fillColor=none;align=center;verticalAlign=middle;whiteSpace=wrap;rounded=0;fontFamily=JetBrains Mono;" vertex="1" parent="1">
          <mxGeometry x="204" y="146" width="60" height="30" as="geometry" />
        </mxCell>
        <mxCell id="qYqdaFjlSKLEBQXjPs_k-1" value="&lt;i&gt;out&lt;/i&gt;" style="text;html=1;strokeColor=none;fillColor=none;align=center;verticalAlign=middle;whiteSpace=wrap;rounded=0;fontFamily=JetBrains Mono;" vertex="1" parent="1">
          <mxGeometry x="380" y="140" width="60" height="30" as="geometry" />
        </mxCell>
        <mxCell id="O9ol2nD7Hlk0JvyB9rR--1" value="OR(a,b)" style="shape=table;startSize=30;container=1;collapsible=0;childLayout=tableLayout;fontFamily=JetBrains Mono;fontStyle=1" vertex="1" parent="1">
          <mxGeometry x="450" y="80" width="180" height="180" as="geometry" />
        </mxCell>
        <mxCell id="O9ol2nD7Hlk0JvyB9rR--2" value="" style="shape=tableRow;horizontal=0;startSize=0;swimlaneHead=0;swimlaneBody=0;top=0;left=0;bottom=0;right=0;collapsible=0;dropTarget=0;fillColor=none;points=[[0,0.5],[1,0.5]];portConstraint=eastwest;" vertex="1" parent="O9ol2nD7Hlk0JvyB9rR--1">
          <mxGeometry y="30" width="180" height="30" as="geometry" />
        </mxCell>
        <mxCell id="O9ol2nD7Hlk0JvyB9rR--3" value="a" style="shape=partialRectangle;html=1;whiteSpace=wrap;connectable=0;overflow=hidden;fillColor=none;top=0;left=0;bottom=0;right=0;pointerEvents=1;fontFamily=JetBrains Mono;fontStyle=2" vertex="1" parent="O9ol2nD7Hlk0JvyB9rR--2">
          <mxGeometry width="60" height="30" as="geometry">
            <mxRectangle width="60" height="30" as="alternateBounds" />
          </mxGeometry>
        </mxCell>
        <mxCell id="O9ol2nD7Hlk0JvyB9rR--4" value="b" style="shape=partialRectangle;html=1;whiteSpace=wrap;connectable=0;overflow=hidden;fillColor=none;top=0;left=0;bottom=0;right=0;pointerEvents=1;fontFamily=JetBrains Mono;fontStyle=2" vertex="1" parent="O9ol2nD7Hlk0JvyB9rR--2">
          <mxGeometry x="60" width="60" height="30" as="geometry">
            <mxRectangle width="60" height="30" as="alternateBounds" />
          </mxGeometry>
        </mxCell>
        <mxCell id="O9ol2nD7Hlk0JvyB9rR--5" value="out" style="shape=partialRectangle;html=1;whiteSpace=wrap;connectable=0;overflow=hidden;fillColor=none;top=0;left=0;bottom=0;right=0;pointerEvents=1;fontFamily=JetBrains Mono;fontStyle=2" vertex="1" parent="O9ol2nD7Hlk0JvyB9rR--2">
          <mxGeometry x="120" width="60" height="30" as="geometry">
            <mxRectangle width="60" height="30" as="alternateBounds" />
          </mxGeometry>
        </mxCell>
        <mxCell id="O9ol2nD7Hlk0JvyB9rR--6" value="" style="shape=tableRow;horizontal=0;startSize=0;swimlaneHead=0;swimlaneBody=0;top=0;left=0;bottom=0;right=0;collapsible=0;dropTarget=0;fillColor=none;points=[[0,0.5],[1,0.5]];portConstraint=eastwest;" vertex="1" parent="O9ol2nD7Hlk0JvyB9rR--1">
          <mxGeometry y="60" width="180" height="30" as="geometry" />
        </mxCell>
        <mxCell id="O9ol2nD7Hlk0JvyB9rR--7" value="0" style="shape=partialRectangle;html=1;whiteSpace=wrap;connectable=0;overflow=hidden;fillColor=none;top=0;left=0;bottom=0;right=0;pointerEvents=1;fontFamily=JetBrains Mono;" vertex="1" parent="O9ol2nD7Hlk0JvyB9rR--6">
          <mxGeometry width="60" height="30" as="geometry">
            <mxRectangle width="60" height="30" as="alternateBounds" />
          </mxGeometry>
        </mxCell>
        <mxCell id="O9ol2nD7Hlk0JvyB9rR--8" value="0" style="shape=partialRectangle;html=1;whiteSpace=wrap;connectable=0;overflow=hidden;fillColor=none;top=0;left=0;bottom=0;right=0;pointerEvents=1;fontFamily=JetBrains Mono;" vertex="1" parent="O9ol2nD7Hlk0JvyB9rR--6">
          <mxGeometry x="60" width="60" height="30" as="geometry">
            <mxRectangle width="60" height="30" as="alternateBounds" />
          </mxGeometry>
        </mxCell>
        <mxCell id="O9ol2nD7Hlk0JvyB9rR--9" value="0" style="shape=partialRectangle;html=1;whiteSpace=wrap;connectable=0;overflow=hidden;fillColor=none;top=0;left=0;bottom=0;right=0;pointerEvents=1;fontFamily=JetBrains Mono;" vertex="1" parent="O9ol2nD7Hlk0JvyB9rR--6">
          <mxGeometry x="120" width="60" height="30" as="geometry">
            <mxRectangle width="60" height="30" as="alternateBounds" />
          </mxGeometry>
        </mxCell>
        <mxCell id="O9ol2nD7Hlk0JvyB9rR--10" value="" style="shape=tableRow;horizontal=0;startSize=0;swimlaneHead=0;swimlaneBody=0;top=0;left=0;bottom=0;right=0;collapsible=0;dropTarget=0;fillColor=none;points=[[0,0.5],[1,0.5]];portConstraint=eastwest;" vertex="1" parent="O9ol2nD7Hlk0JvyB9rR--1">
          <mxGeometry y="90" width="180" height="30" as="geometry" />
        </mxCell>
        <mxCell id="O9ol2nD7Hlk0JvyB9rR--11" value="0" style="shape=partialRectangle;html=1;whiteSpace=wrap;connectable=0;overflow=hidden;fillColor=none;top=0;left=0;bottom=0;right=0;pointerEvents=1;fontFamily=JetBrains Mono;" vertex="1" parent="O9ol2nD7Hlk0JvyB9rR--10">
          <mxGeometry width="60" height="30" as="geometry">
            <mxRectangle width="60" height="30" as="alternateBounds" />
          </mxGeometry>
        </mxCell>
        <mxCell id="O9ol2nD7Hlk0JvyB9rR--12" value="1" style="shape=partialRectangle;html=1;whiteSpace=wrap;connectable=0;overflow=hidden;fillColor=none;top=0;left=0;bottom=0;right=0;pointerEvents=1;fontFamily=JetBrains Mono;" vertex="1" parent="O9ol2nD7Hlk0JvyB9rR--10">
          <mxGeometry x="60" width="60" height="30" as="geometry">
            <mxRectangle width="60" height="30" as="alternateBounds" />
          </mxGeometry>
        </mxCell>
        <mxCell id="O9ol2nD7Hlk0JvyB9rR--13" value="1" style="shape=partialRectangle;html=1;whiteSpace=wrap;connectable=0;overflow=hidden;fillColor=none;top=0;left=0;bottom=0;right=0;pointerEvents=1;fontFamily=JetBrains Mono;" vertex="1" parent="O9ol2nD7Hlk0JvyB9rR--10">
          <mxGeometry x="120" width="60" height="30" as="geometry">
            <mxRectangle width="60" height="30" as="alternateBounds" />
          </mxGeometry>
        </mxCell>
        <mxCell id="O9ol2nD7Hlk0JvyB9rR--14" value="" style="shape=tableRow;horizontal=0;startSize=0;swimlaneHead=0;swimlaneBody=0;top=0;left=0;bottom=0;right=0;collapsible=0;dropTarget=0;fillColor=none;points=[[0,0.5],[1,0.5]];portConstraint=eastwest;" vertex="1" parent="O9ol2nD7Hlk0JvyB9rR--1">
          <mxGeometry y="120" width="180" height="30" as="geometry" />
        </mxCell>
        <mxCell id="O9ol2nD7Hlk0JvyB9rR--15" value="1" style="shape=partialRectangle;html=1;whiteSpace=wrap;connectable=0;overflow=hidden;fillColor=none;top=0;left=0;bottom=0;right=0;pointerEvents=1;fontFamily=JetBrains Mono;" vertex="1" parent="O9ol2nD7Hlk0JvyB9rR--14">
          <mxGeometry width="60" height="30" as="geometry">
            <mxRectangle width="60" height="30" as="alternateBounds" />
          </mxGeometry>
        </mxCell>
        <mxCell id="O9ol2nD7Hlk0JvyB9rR--16" value="0" style="shape=partialRectangle;html=1;whiteSpace=wrap;connectable=0;overflow=hidden;fillColor=none;top=0;left=0;bottom=0;right=0;pointerEvents=1;fontFamily=JetBrains Mono;" vertex="1" parent="O9ol2nD7Hlk0JvyB9rR--14">
          <mxGeometry x="60" width="60" height="30" as="geometry">
            <mxRectangle width="60" height="30" as="alternateBounds" />
          </mxGeometry>
        </mxCell>
        <mxCell id="O9ol2nD7Hlk0JvyB9rR--17" value="1" style="shape=partialRectangle;html=1;whiteSpace=wrap;connectable=0;overflow=hidden;fillColor=none;top=0;left=0;bottom=0;right=0;pointerEvents=1;fontFamily=JetBrains Mono;" vertex="1" parent="O9ol2nD7Hlk0JvyB9rR--14">
          <mxGeometry x="120" width="60" height="30" as="geometry">
            <mxRectangle width="60" height="30" as="alternateBounds" />
          </mxGeometry>
        </mxCell>
        <mxCell id="O9ol2nD7Hlk0JvyB9rR--18" style="shape=tableRow;horizontal=0;startSize=0;swimlaneHead=0;swimlaneBody=0;top=0;left=0;bottom=0;right=0;collapsible=0;dropTarget=0;fillColor=none;points=[[0,0.5],[1,0.5]];portConstraint=eastwest;" vertex="1" parent="O9ol2nD7Hlk0JvyB9rR--1">
          <mxGeometry y="150" width="180" height="30" as="geometry" />
        </mxCell>
        <mxCell id="O9ol2nD7Hlk0JvyB9rR--19" value="1" style="shape=partialRectangle;html=1;whiteSpace=wrap;connectable=0;overflow=hidden;fillColor=none;top=0;left=0;bottom=0;right=0;pointerEvents=1;fontFamily=JetBrains Mono;" vertex="1" parent="O9ol2nD7Hlk0JvyB9rR--18">
          <mxGeometry width="60" height="30" as="geometry">
            <mxRectangle width="60" height="30" as="alternateBounds" />
          </mxGeometry>
        </mxCell>
        <mxCell id="O9ol2nD7Hlk0JvyB9rR--20" value="1" style="shape=partialRectangle;html=1;whiteSpace=wrap;connectable=0;overflow=hidden;fillColor=none;top=0;left=0;bottom=0;right=0;pointerEvents=1;fontFamily=JetBrains Mono;" vertex="1" parent="O9ol2nD7Hlk0JvyB9rR--18">
          <mxGeometry x="60" width="60" height="30" as="geometry">
            <mxRectangle width="60" height="30" as="alternateBounds" />
          </mxGeometry>
        </mxCell>
        <mxCell id="O9ol2nD7Hlk0JvyB9rR--21" value="1" style="shape=partialRectangle;html=1;whiteSpace=wrap;connectable=0;overflow=hidden;fillColor=none;top=0;left=0;bottom=0;right=0;pointerEvents=1;fontFamily=JetBrains Mono;" vertex="1" parent="O9ol2nD7Hlk0JvyB9rR--18">
          <mxGeometry x="120" width="60" height="30" as="geometry">
            <mxRectangle width="60" height="30" as="alternateBounds" />
          </mxGeometry>
        </mxCell>
        <mxCell id="wxD4rH8Xe-d4ZKW7ogJ8-1" value="" style="rounded=0;whiteSpace=wrap;html=1;" vertex="1" parent="1">
          <mxGeometry x="280" y="270" width="300" height="30" as="geometry" />
        </mxCell>
        <mxCell id="wxD4rH8Xe-d4ZKW7ogJ8-2" value="&lt;font face=&quot;JetBrains Mono&quot;&gt;OR(&lt;i&gt;a,b&lt;/i&gt;) = NAND(NAND(&lt;i&gt;a&lt;/i&gt;,&lt;i&gt;a&lt;/i&gt;), NAND(&lt;i&gt;b&lt;/i&gt;,&lt;i&gt;b&lt;/i&gt;))&lt;/font&gt;" style="text;html=1;strokeColor=none;fillColor=none;align=center;verticalAlign=middle;whiteSpace=wrap;rounded=0;" vertex="1" parent="1">
          <mxGeometry x="290" y="270" width="280" height="30" as="geometry" />
        </mxCell>
        <mxCell id="W30y_ATfOVee-4Vn8bYB-1" value="" style="verticalLabelPosition=bottom;shadow=0;dashed=0;align=center;html=1;verticalAlign=top;shape=mxgraph.electrical.logic_gates.logic_gate;operation=or;fontFamily=JetBrains Mono;fontSize=11;" vertex="1" parent="1">
          <mxGeometry x="261" y="80" width="124" height="120" as="geometry" />
        </mxCell>
        <mxCell id="W30y_ATfOVee-4Vn8bYB-2" value="&lt;b&gt;OR&lt;/b&gt;" style="text;html=1;strokeColor=none;fillColor=none;align=center;verticalAlign=middle;whiteSpace=wrap;rounded=0;fontFamily=JetBrains Mono;fontSize=11;" vertex="1" parent="1">
          <mxGeometry x="293" y="125" width="60" height="30" as="geometry" />
        </mxCell>
      </root>
    </mxGraphModel>
  </diagram>
  <diagram id="V8Y4sqw9U7rVOi8mjXjN" name="XOR">
    <mxGraphModel dx="946" dy="587" grid="1" gridSize="10" guides="1" tooltips="1" connect="1" arrows="1" fold="1" page="1" pageScale="1" pageWidth="850" pageHeight="1100" math="0" shadow="0">
      <root>
        <mxCell id="0" />
        <mxCell id="1" parent="0" />
        <mxCell id="jq7EQ7HgVWatoIpj7oog-2" value="" style="endArrow=classic;html=1;rounded=0;fontFamily=JetBrains Mono;strokeWidth=2;" edge="1" parent="1">
          <mxGeometry width="50" height="50" relative="1" as="geometry">
            <mxPoint x="244" y="170" as="sourcePoint" />
            <mxPoint x="294" y="170" as="targetPoint" />
          </mxGeometry>
        </mxCell>
        <mxCell id="jq7EQ7HgVWatoIpj7oog-3" value="" style="endArrow=classic;html=1;rounded=0;fontFamily=JetBrains Mono;strokeWidth=2;" edge="1" parent="1">
          <mxGeometry width="50" height="50" relative="1" as="geometry">
            <mxPoint x="243" y="110" as="sourcePoint" />
            <mxPoint x="293" y="110" as="targetPoint" />
          </mxGeometry>
        </mxCell>
        <mxCell id="jq7EQ7HgVWatoIpj7oog-4" value="" style="endArrow=classic;html=1;rounded=0;fontFamily=JetBrains Mono;fontSize=11;strokeWidth=2;" edge="1" parent="1">
          <mxGeometry width="50" height="50" relative="1" as="geometry">
            <mxPoint x="357" y="140.5" as="sourcePoint" />
            <mxPoint x="407" y="140.5" as="targetPoint" />
          </mxGeometry>
        </mxCell>
        <mxCell id="jq7EQ7HgVWatoIpj7oog-6" value="&lt;i&gt;a&lt;/i&gt;" style="text;html=1;strokeColor=none;fillColor=none;align=center;verticalAlign=middle;whiteSpace=wrap;rounded=0;fontFamily=JetBrains Mono;" vertex="1" parent="1">
          <mxGeometry x="208" y="85" width="60" height="30" as="geometry" />
        </mxCell>
        <mxCell id="jq7EQ7HgVWatoIpj7oog-7" value="&lt;i&gt;b&lt;/i&gt;" style="text;html=1;strokeColor=none;fillColor=none;align=center;verticalAlign=middle;whiteSpace=wrap;rounded=0;fontFamily=JetBrains Mono;" vertex="1" parent="1">
          <mxGeometry x="208" y="143" width="60" height="30" as="geometry" />
        </mxCell>
        <mxCell id="jq7EQ7HgVWatoIpj7oog-8" value="&lt;i&gt;out&lt;/i&gt;" style="text;html=1;strokeColor=none;fillColor=none;align=center;verticalAlign=middle;whiteSpace=wrap;rounded=0;fontFamily=JetBrains Mono;" vertex="1" parent="1">
          <mxGeometry x="381" y="141" width="60" height="30" as="geometry" />
        </mxCell>
        <mxCell id="jq7EQ7HgVWatoIpj7oog-9" value="XOR(a,b)" style="shape=table;startSize=30;container=1;collapsible=0;childLayout=tableLayout;fontFamily=JetBrains Mono;fontStyle=1" vertex="1" parent="1">
          <mxGeometry x="450" y="80" width="180" height="180" as="geometry" />
        </mxCell>
        <mxCell id="jq7EQ7HgVWatoIpj7oog-10" value="" style="shape=tableRow;horizontal=0;startSize=0;swimlaneHead=0;swimlaneBody=0;top=0;left=0;bottom=0;right=0;collapsible=0;dropTarget=0;fillColor=none;points=[[0,0.5],[1,0.5]];portConstraint=eastwest;" vertex="1" parent="jq7EQ7HgVWatoIpj7oog-9">
          <mxGeometry y="30" width="180" height="30" as="geometry" />
        </mxCell>
        <mxCell id="jq7EQ7HgVWatoIpj7oog-11" value="a" style="shape=partialRectangle;html=1;whiteSpace=wrap;connectable=0;overflow=hidden;fillColor=none;top=0;left=0;bottom=0;right=0;pointerEvents=1;fontFamily=JetBrains Mono;fontStyle=2" vertex="1" parent="jq7EQ7HgVWatoIpj7oog-10">
          <mxGeometry width="60" height="30" as="geometry">
            <mxRectangle width="60" height="30" as="alternateBounds" />
          </mxGeometry>
        </mxCell>
        <mxCell id="jq7EQ7HgVWatoIpj7oog-12" value="b" style="shape=partialRectangle;html=1;whiteSpace=wrap;connectable=0;overflow=hidden;fillColor=none;top=0;left=0;bottom=0;right=0;pointerEvents=1;fontFamily=JetBrains Mono;fontStyle=2" vertex="1" parent="jq7EQ7HgVWatoIpj7oog-10">
          <mxGeometry x="60" width="60" height="30" as="geometry">
            <mxRectangle width="60" height="30" as="alternateBounds" />
          </mxGeometry>
        </mxCell>
        <mxCell id="jq7EQ7HgVWatoIpj7oog-13" value="out" style="shape=partialRectangle;html=1;whiteSpace=wrap;connectable=0;overflow=hidden;fillColor=none;top=0;left=0;bottom=0;right=0;pointerEvents=1;fontFamily=JetBrains Mono;fontStyle=2" vertex="1" parent="jq7EQ7HgVWatoIpj7oog-10">
          <mxGeometry x="120" width="60" height="30" as="geometry">
            <mxRectangle width="60" height="30" as="alternateBounds" />
          </mxGeometry>
        </mxCell>
        <mxCell id="jq7EQ7HgVWatoIpj7oog-14" value="" style="shape=tableRow;horizontal=0;startSize=0;swimlaneHead=0;swimlaneBody=0;top=0;left=0;bottom=0;right=0;collapsible=0;dropTarget=0;fillColor=none;points=[[0,0.5],[1,0.5]];portConstraint=eastwest;" vertex="1" parent="jq7EQ7HgVWatoIpj7oog-9">
          <mxGeometry y="60" width="180" height="30" as="geometry" />
        </mxCell>
        <mxCell id="jq7EQ7HgVWatoIpj7oog-15" value="0" style="shape=partialRectangle;html=1;whiteSpace=wrap;connectable=0;overflow=hidden;fillColor=none;top=0;left=0;bottom=0;right=0;pointerEvents=1;fontFamily=JetBrains Mono;" vertex="1" parent="jq7EQ7HgVWatoIpj7oog-14">
          <mxGeometry width="60" height="30" as="geometry">
            <mxRectangle width="60" height="30" as="alternateBounds" />
          </mxGeometry>
        </mxCell>
        <mxCell id="jq7EQ7HgVWatoIpj7oog-16" value="0" style="shape=partialRectangle;html=1;whiteSpace=wrap;connectable=0;overflow=hidden;fillColor=none;top=0;left=0;bottom=0;right=0;pointerEvents=1;fontFamily=JetBrains Mono;" vertex="1" parent="jq7EQ7HgVWatoIpj7oog-14">
          <mxGeometry x="60" width="60" height="30" as="geometry">
            <mxRectangle width="60" height="30" as="alternateBounds" />
          </mxGeometry>
        </mxCell>
        <mxCell id="jq7EQ7HgVWatoIpj7oog-17" value="0" style="shape=partialRectangle;html=1;whiteSpace=wrap;connectable=0;overflow=hidden;fillColor=none;top=0;left=0;bottom=0;right=0;pointerEvents=1;fontFamily=JetBrains Mono;" vertex="1" parent="jq7EQ7HgVWatoIpj7oog-14">
          <mxGeometry x="120" width="60" height="30" as="geometry">
            <mxRectangle width="60" height="30" as="alternateBounds" />
          </mxGeometry>
        </mxCell>
        <mxCell id="jq7EQ7HgVWatoIpj7oog-18" value="" style="shape=tableRow;horizontal=0;startSize=0;swimlaneHead=0;swimlaneBody=0;top=0;left=0;bottom=0;right=0;collapsible=0;dropTarget=0;fillColor=none;points=[[0,0.5],[1,0.5]];portConstraint=eastwest;" vertex="1" parent="jq7EQ7HgVWatoIpj7oog-9">
          <mxGeometry y="90" width="180" height="30" as="geometry" />
        </mxCell>
        <mxCell id="jq7EQ7HgVWatoIpj7oog-19" value="0" style="shape=partialRectangle;html=1;whiteSpace=wrap;connectable=0;overflow=hidden;fillColor=none;top=0;left=0;bottom=0;right=0;pointerEvents=1;fontFamily=JetBrains Mono;" vertex="1" parent="jq7EQ7HgVWatoIpj7oog-18">
          <mxGeometry width="60" height="30" as="geometry">
            <mxRectangle width="60" height="30" as="alternateBounds" />
          </mxGeometry>
        </mxCell>
        <mxCell id="jq7EQ7HgVWatoIpj7oog-20" value="1" style="shape=partialRectangle;html=1;whiteSpace=wrap;connectable=0;overflow=hidden;fillColor=none;top=0;left=0;bottom=0;right=0;pointerEvents=1;fontFamily=JetBrains Mono;" vertex="1" parent="jq7EQ7HgVWatoIpj7oog-18">
          <mxGeometry x="60" width="60" height="30" as="geometry">
            <mxRectangle width="60" height="30" as="alternateBounds" />
          </mxGeometry>
        </mxCell>
        <mxCell id="jq7EQ7HgVWatoIpj7oog-21" value="1" style="shape=partialRectangle;html=1;whiteSpace=wrap;connectable=0;overflow=hidden;fillColor=none;top=0;left=0;bottom=0;right=0;pointerEvents=1;fontFamily=JetBrains Mono;" vertex="1" parent="jq7EQ7HgVWatoIpj7oog-18">
          <mxGeometry x="120" width="60" height="30" as="geometry">
            <mxRectangle width="60" height="30" as="alternateBounds" />
          </mxGeometry>
        </mxCell>
        <mxCell id="jq7EQ7HgVWatoIpj7oog-22" value="" style="shape=tableRow;horizontal=0;startSize=0;swimlaneHead=0;swimlaneBody=0;top=0;left=0;bottom=0;right=0;collapsible=0;dropTarget=0;fillColor=none;points=[[0,0.5],[1,0.5]];portConstraint=eastwest;" vertex="1" parent="jq7EQ7HgVWatoIpj7oog-9">
          <mxGeometry y="120" width="180" height="30" as="geometry" />
        </mxCell>
        <mxCell id="jq7EQ7HgVWatoIpj7oog-23" value="1" style="shape=partialRectangle;html=1;whiteSpace=wrap;connectable=0;overflow=hidden;fillColor=none;top=0;left=0;bottom=0;right=0;pointerEvents=1;fontFamily=JetBrains Mono;" vertex="1" parent="jq7EQ7HgVWatoIpj7oog-22">
          <mxGeometry width="60" height="30" as="geometry">
            <mxRectangle width="60" height="30" as="alternateBounds" />
          </mxGeometry>
        </mxCell>
        <mxCell id="jq7EQ7HgVWatoIpj7oog-24" value="0" style="shape=partialRectangle;html=1;whiteSpace=wrap;connectable=0;overflow=hidden;fillColor=none;top=0;left=0;bottom=0;right=0;pointerEvents=1;fontFamily=JetBrains Mono;" vertex="1" parent="jq7EQ7HgVWatoIpj7oog-22">
          <mxGeometry x="60" width="60" height="30" as="geometry">
            <mxRectangle width="60" height="30" as="alternateBounds" />
          </mxGeometry>
        </mxCell>
        <mxCell id="jq7EQ7HgVWatoIpj7oog-25" value="1" style="shape=partialRectangle;html=1;whiteSpace=wrap;connectable=0;overflow=hidden;fillColor=none;top=0;left=0;bottom=0;right=0;pointerEvents=1;fontFamily=JetBrains Mono;" vertex="1" parent="jq7EQ7HgVWatoIpj7oog-22">
          <mxGeometry x="120" width="60" height="30" as="geometry">
            <mxRectangle width="60" height="30" as="alternateBounds" />
          </mxGeometry>
        </mxCell>
        <mxCell id="jq7EQ7HgVWatoIpj7oog-26" style="shape=tableRow;horizontal=0;startSize=0;swimlaneHead=0;swimlaneBody=0;top=0;left=0;bottom=0;right=0;collapsible=0;dropTarget=0;fillColor=none;points=[[0,0.5],[1,0.5]];portConstraint=eastwest;" vertex="1" parent="jq7EQ7HgVWatoIpj7oog-9">
          <mxGeometry y="150" width="180" height="30" as="geometry" />
        </mxCell>
        <mxCell id="jq7EQ7HgVWatoIpj7oog-27" value="1" style="shape=partialRectangle;html=1;whiteSpace=wrap;connectable=0;overflow=hidden;fillColor=none;top=0;left=0;bottom=0;right=0;pointerEvents=1;fontFamily=JetBrains Mono;" vertex="1" parent="jq7EQ7HgVWatoIpj7oog-26">
          <mxGeometry width="60" height="30" as="geometry">
            <mxRectangle width="60" height="30" as="alternateBounds" />
          </mxGeometry>
        </mxCell>
        <mxCell id="jq7EQ7HgVWatoIpj7oog-28" value="1" style="shape=partialRectangle;html=1;whiteSpace=wrap;connectable=0;overflow=hidden;fillColor=none;top=0;left=0;bottom=0;right=0;pointerEvents=1;fontFamily=JetBrains Mono;" vertex="1" parent="jq7EQ7HgVWatoIpj7oog-26">
          <mxGeometry x="60" width="60" height="30" as="geometry">
            <mxRectangle width="60" height="30" as="alternateBounds" />
          </mxGeometry>
        </mxCell>
        <mxCell id="jq7EQ7HgVWatoIpj7oog-29" value="0" style="shape=partialRectangle;html=1;whiteSpace=wrap;connectable=0;overflow=hidden;fillColor=none;top=0;left=0;bottom=0;right=0;pointerEvents=1;fontFamily=JetBrains Mono;" vertex="1" parent="jq7EQ7HgVWatoIpj7oog-26">
          <mxGeometry x="120" width="60" height="30" as="geometry">
            <mxRectangle width="60" height="30" as="alternateBounds" />
          </mxGeometry>
        </mxCell>
        <mxCell id="jq7EQ7HgVWatoIpj7oog-30" value="" style="rounded=0;whiteSpace=wrap;html=1;" vertex="1" parent="1">
          <mxGeometry x="269" y="270" width="330" height="30" as="geometry" />
        </mxCell>
        <mxCell id="jq7EQ7HgVWatoIpj7oog-31" value="&lt;font face=&quot;JetBrains Mono&quot;&gt;XOR(&lt;i&gt;a,b&lt;/i&gt;) = OR(AND(NOT(a),b), AND(NOT(b),a))&lt;br&gt;&lt;/font&gt;" style="text;html=1;strokeColor=none;fillColor=none;align=center;verticalAlign=middle;whiteSpace=wrap;rounded=0;" vertex="1" parent="1">
          <mxGeometry x="273" y="271" width="321" height="30" as="geometry" />
        </mxCell>
        <mxCell id="jq7EQ7HgVWatoIpj7oog-36" value="" style="verticalLabelPosition=bottom;shadow=0;dashed=0;align=center;html=1;verticalAlign=top;shape=mxgraph.electrical.logic_gates.logic_gate;operation=xor;fontFamily=JetBrains Mono;" vertex="1" parent="1">
          <mxGeometry x="270" y="80" width="110" height="120" as="geometry" />
        </mxCell>
        <mxCell id="6h7ilLV9X3mxfSpwkemT-1" value="&lt;b&gt;XOR&lt;/b&gt;" style="text;html=1;strokeColor=none;fillColor=none;align=center;verticalAlign=middle;whiteSpace=wrap;rounded=0;fontFamily=JetBrains Mono;fontSize=11;" vertex="1" parent="1">
          <mxGeometry x="295" y="125" width="60" height="30" as="geometry" />
        </mxCell>
      </root>
    </mxGraphModel>
  </diagram>
  <diagram id="8sMX0dKXl9N2Sum3S6CM" name="MUX">
    <mxGraphModel dx="946" dy="587" grid="1" gridSize="10" guides="1" tooltips="1" connect="1" arrows="1" fold="1" page="1" pageScale="1" pageWidth="850" pageHeight="1100" math="0" shadow="0">
      <root>
        <mxCell id="0" />
        <mxCell id="1" parent="0" />
        <mxCell id="rOHQztOY-HzWtF0UON7x-1" value="" style="rounded=0;whiteSpace=wrap;html=1;labelBorderColor=none;fontFamily=JetBrains Mono;fontSize=13;" vertex="1" parent="1">
          <mxGeometry x="74" y="230" width="395" height="30" as="geometry" />
        </mxCell>
        <mxCell id="rOHQztOY-HzWtF0UON7x-2" value="MUX(a,b,sel)" style="shape=table;startSize=30;container=1;collapsible=0;childLayout=tableLayout;fontStyle=1;align=center;fontSize=13;fontFamily=JetBrains Mono;" vertex="1" parent="1">
          <mxGeometry x="480" y="80" width="240" height="300" as="geometry" />
        </mxCell>
        <mxCell id="rOHQztOY-HzWtF0UON7x-3" value="" style="shape=tableRow;horizontal=0;startSize=0;swimlaneHead=0;swimlaneBody=0;top=0;left=0;bottom=0;right=0;collapsible=0;dropTarget=0;fillColor=none;points=[[0,0.5],[1,0.5]];portConstraint=eastwest;fontSize=13;" vertex="1" parent="rOHQztOY-HzWtF0UON7x-2">
          <mxGeometry y="30" width="240" height="30" as="geometry" />
        </mxCell>
        <mxCell id="rOHQztOY-HzWtF0UON7x-4" value="a" style="shape=partialRectangle;html=1;whiteSpace=wrap;connectable=0;fillColor=none;top=0;left=0;bottom=0;right=0;overflow=hidden;fontSize=13;fontFamily=JetBrains Mono;fontStyle=2" vertex="1" parent="rOHQztOY-HzWtF0UON7x-3">
          <mxGeometry width="60" height="30" as="geometry">
            <mxRectangle width="60" height="30" as="alternateBounds" />
          </mxGeometry>
        </mxCell>
        <mxCell id="7-WvRMnmt2qf-db6xI5E-10" value="b" style="shape=partialRectangle;html=1;whiteSpace=wrap;connectable=0;fillColor=none;top=0;left=0;bottom=0;right=0;overflow=hidden;fontSize=13;fontFamily=JetBrains Mono;fontStyle=2" vertex="1" parent="rOHQztOY-HzWtF0UON7x-3">
          <mxGeometry x="60" width="60" height="30" as="geometry">
            <mxRectangle width="60" height="30" as="alternateBounds" />
          </mxGeometry>
        </mxCell>
        <mxCell id="7-WvRMnmt2qf-db6xI5E-7" value="sel" style="shape=partialRectangle;html=1;whiteSpace=wrap;connectable=0;fillColor=none;top=0;left=0;bottom=0;right=0;overflow=hidden;fontSize=13;fontFamily=JetBrains Mono;fontStyle=2" vertex="1" parent="rOHQztOY-HzWtF0UON7x-3">
          <mxGeometry x="120" width="60" height="30" as="geometry">
            <mxRectangle width="60" height="30" as="alternateBounds" />
          </mxGeometry>
        </mxCell>
        <mxCell id="rOHQztOY-HzWtF0UON7x-5" value="out" style="shape=partialRectangle;html=1;whiteSpace=wrap;connectable=0;fillColor=none;top=0;left=0;bottom=0;right=0;overflow=hidden;fontSize=13;fontFamily=JetBrains Mono;fontStyle=2" vertex="1" parent="rOHQztOY-HzWtF0UON7x-3">
          <mxGeometry x="180" width="60" height="30" as="geometry">
            <mxRectangle width="60" height="30" as="alternateBounds" />
          </mxGeometry>
        </mxCell>
        <mxCell id="rOHQztOY-HzWtF0UON7x-6" value="" style="shape=tableRow;horizontal=0;startSize=0;swimlaneHead=0;swimlaneBody=0;top=0;left=0;bottom=0;right=0;collapsible=0;dropTarget=0;fillColor=none;points=[[0,0.5],[1,0.5]];portConstraint=eastwest;fontSize=13;" vertex="1" parent="rOHQztOY-HzWtF0UON7x-2">
          <mxGeometry y="60" width="240" height="30" as="geometry" />
        </mxCell>
        <mxCell id="rOHQztOY-HzWtF0UON7x-7" value="0" style="shape=partialRectangle;html=1;whiteSpace=wrap;connectable=0;fillColor=none;top=0;left=0;bottom=0;right=0;overflow=hidden;fontSize=13;fontFamily=JetBrains Mono;" vertex="1" parent="rOHQztOY-HzWtF0UON7x-6">
          <mxGeometry width="60" height="30" as="geometry">
            <mxRectangle width="60" height="30" as="alternateBounds" />
          </mxGeometry>
        </mxCell>
        <mxCell id="7-WvRMnmt2qf-db6xI5E-11" value="0" style="shape=partialRectangle;html=1;whiteSpace=wrap;connectable=0;fillColor=none;top=0;left=0;bottom=0;right=0;overflow=hidden;fontSize=13;fontFamily=JetBrains Mono;" vertex="1" parent="rOHQztOY-HzWtF0UON7x-6">
          <mxGeometry x="60" width="60" height="30" as="geometry">
            <mxRectangle width="60" height="30" as="alternateBounds" />
          </mxGeometry>
        </mxCell>
        <mxCell id="7-WvRMnmt2qf-db6xI5E-8" value="0" style="shape=partialRectangle;html=1;whiteSpace=wrap;connectable=0;fillColor=none;top=0;left=0;bottom=0;right=0;overflow=hidden;fontSize=13;fontFamily=JetBrains Mono;" vertex="1" parent="rOHQztOY-HzWtF0UON7x-6">
          <mxGeometry x="120" width="60" height="30" as="geometry">
            <mxRectangle width="60" height="30" as="alternateBounds" />
          </mxGeometry>
        </mxCell>
        <mxCell id="rOHQztOY-HzWtF0UON7x-8" value="0" style="shape=partialRectangle;html=1;whiteSpace=wrap;connectable=0;fillColor=none;top=0;left=0;bottom=0;right=0;overflow=hidden;fontSize=13;fontFamily=JetBrains Mono;" vertex="1" parent="rOHQztOY-HzWtF0UON7x-6">
          <mxGeometry x="180" width="60" height="30" as="geometry">
            <mxRectangle width="60" height="30" as="alternateBounds" />
          </mxGeometry>
        </mxCell>
        <mxCell id="rOHQztOY-HzWtF0UON7x-9" value="" style="shape=tableRow;horizontal=0;startSize=0;swimlaneHead=0;swimlaneBody=0;top=0;left=0;bottom=0;right=0;collapsible=0;dropTarget=0;fillColor=none;points=[[0,0.5],[1,0.5]];portConstraint=eastwest;fontSize=13;" vertex="1" parent="rOHQztOY-HzWtF0UON7x-2">
          <mxGeometry y="90" width="240" height="30" as="geometry" />
        </mxCell>
        <mxCell id="rOHQztOY-HzWtF0UON7x-10" value="1" style="shape=partialRectangle;html=1;whiteSpace=wrap;connectable=0;fillColor=none;top=0;left=0;bottom=0;right=0;overflow=hidden;fontSize=13;fontFamily=JetBrains Mono;" vertex="1" parent="rOHQztOY-HzWtF0UON7x-9">
          <mxGeometry width="60" height="30" as="geometry">
            <mxRectangle width="60" height="30" as="alternateBounds" />
          </mxGeometry>
        </mxCell>
        <mxCell id="7-WvRMnmt2qf-db6xI5E-12" value="0" style="shape=partialRectangle;html=1;whiteSpace=wrap;connectable=0;fillColor=none;top=0;left=0;bottom=0;right=0;overflow=hidden;fontSize=13;fontFamily=JetBrains Mono;" vertex="1" parent="rOHQztOY-HzWtF0UON7x-9">
          <mxGeometry x="60" width="60" height="30" as="geometry">
            <mxRectangle width="60" height="30" as="alternateBounds" />
          </mxGeometry>
        </mxCell>
        <mxCell id="7-WvRMnmt2qf-db6xI5E-9" value="0" style="shape=partialRectangle;html=1;whiteSpace=wrap;connectable=0;fillColor=none;top=0;left=0;bottom=0;right=0;overflow=hidden;fontSize=13;fontFamily=JetBrains Mono;" vertex="1" parent="rOHQztOY-HzWtF0UON7x-9">
          <mxGeometry x="120" width="60" height="30" as="geometry">
            <mxRectangle width="60" height="30" as="alternateBounds" />
          </mxGeometry>
        </mxCell>
        <mxCell id="rOHQztOY-HzWtF0UON7x-11" value="1" style="shape=partialRectangle;html=1;whiteSpace=wrap;connectable=0;fillColor=none;top=0;left=0;bottom=0;right=0;overflow=hidden;fontSize=13;fontFamily=JetBrains Mono;" vertex="1" parent="rOHQztOY-HzWtF0UON7x-9">
          <mxGeometry x="180" width="60" height="30" as="geometry">
            <mxRectangle width="60" height="30" as="alternateBounds" />
          </mxGeometry>
        </mxCell>
        <mxCell id="7-WvRMnmt2qf-db6xI5E-13" style="shape=tableRow;horizontal=0;startSize=0;swimlaneHead=0;swimlaneBody=0;top=0;left=0;bottom=0;right=0;collapsible=0;dropTarget=0;fillColor=none;points=[[0,0.5],[1,0.5]];portConstraint=eastwest;fontSize=13;" vertex="1" parent="rOHQztOY-HzWtF0UON7x-2">
          <mxGeometry y="120" width="240" height="30" as="geometry" />
        </mxCell>
        <mxCell id="7-WvRMnmt2qf-db6xI5E-14" value="0" style="shape=partialRectangle;html=1;whiteSpace=wrap;connectable=0;fillColor=none;top=0;left=0;bottom=0;right=0;overflow=hidden;fontSize=13;fontFamily=JetBrains Mono;" vertex="1" parent="7-WvRMnmt2qf-db6xI5E-13">
          <mxGeometry width="60" height="30" as="geometry">
            <mxRectangle width="60" height="30" as="alternateBounds" />
          </mxGeometry>
        </mxCell>
        <mxCell id="7-WvRMnmt2qf-db6xI5E-15" value="1" style="shape=partialRectangle;html=1;whiteSpace=wrap;connectable=0;fillColor=none;top=0;left=0;bottom=0;right=0;overflow=hidden;fontSize=13;fontFamily=JetBrains Mono;" vertex="1" parent="7-WvRMnmt2qf-db6xI5E-13">
          <mxGeometry x="60" width="60" height="30" as="geometry">
            <mxRectangle width="60" height="30" as="alternateBounds" />
          </mxGeometry>
        </mxCell>
        <mxCell id="7-WvRMnmt2qf-db6xI5E-16" value="0" style="shape=partialRectangle;html=1;whiteSpace=wrap;connectable=0;fillColor=none;top=0;left=0;bottom=0;right=0;overflow=hidden;fontSize=13;fontFamily=JetBrains Mono;" vertex="1" parent="7-WvRMnmt2qf-db6xI5E-13">
          <mxGeometry x="120" width="60" height="30" as="geometry">
            <mxRectangle width="60" height="30" as="alternateBounds" />
          </mxGeometry>
        </mxCell>
        <mxCell id="7-WvRMnmt2qf-db6xI5E-17" value="0" style="shape=partialRectangle;html=1;whiteSpace=wrap;connectable=0;fillColor=none;top=0;left=0;bottom=0;right=0;overflow=hidden;fontSize=13;fontFamily=JetBrains Mono;" vertex="1" parent="7-WvRMnmt2qf-db6xI5E-13">
          <mxGeometry x="180" width="60" height="30" as="geometry">
            <mxRectangle width="60" height="30" as="alternateBounds" />
          </mxGeometry>
        </mxCell>
        <mxCell id="7-WvRMnmt2qf-db6xI5E-18" style="shape=tableRow;horizontal=0;startSize=0;swimlaneHead=0;swimlaneBody=0;top=0;left=0;bottom=0;right=0;collapsible=0;dropTarget=0;fillColor=none;points=[[0,0.5],[1,0.5]];portConstraint=eastwest;fontSize=13;" vertex="1" parent="rOHQztOY-HzWtF0UON7x-2">
          <mxGeometry y="150" width="240" height="30" as="geometry" />
        </mxCell>
        <mxCell id="7-WvRMnmt2qf-db6xI5E-19" value="1" style="shape=partialRectangle;html=1;whiteSpace=wrap;connectable=0;fillColor=none;top=0;left=0;bottom=0;right=0;overflow=hidden;fontSize=13;fontFamily=JetBrains Mono;" vertex="1" parent="7-WvRMnmt2qf-db6xI5E-18">
          <mxGeometry width="60" height="30" as="geometry">
            <mxRectangle width="60" height="30" as="alternateBounds" />
          </mxGeometry>
        </mxCell>
        <mxCell id="7-WvRMnmt2qf-db6xI5E-20" value="1" style="shape=partialRectangle;html=1;whiteSpace=wrap;connectable=0;fillColor=none;top=0;left=0;bottom=0;right=0;overflow=hidden;fontSize=13;fontFamily=JetBrains Mono;" vertex="1" parent="7-WvRMnmt2qf-db6xI5E-18">
          <mxGeometry x="60" width="60" height="30" as="geometry">
            <mxRectangle width="60" height="30" as="alternateBounds" />
          </mxGeometry>
        </mxCell>
        <mxCell id="7-WvRMnmt2qf-db6xI5E-21" value="0" style="shape=partialRectangle;html=1;whiteSpace=wrap;connectable=0;fillColor=none;top=0;left=0;bottom=0;right=0;overflow=hidden;fontSize=13;fontFamily=JetBrains Mono;" vertex="1" parent="7-WvRMnmt2qf-db6xI5E-18">
          <mxGeometry x="120" width="60" height="30" as="geometry">
            <mxRectangle width="60" height="30" as="alternateBounds" />
          </mxGeometry>
        </mxCell>
        <mxCell id="7-WvRMnmt2qf-db6xI5E-22" value="1" style="shape=partialRectangle;html=1;whiteSpace=wrap;connectable=0;fillColor=none;top=0;left=0;bottom=0;right=0;overflow=hidden;fontSize=13;fontFamily=JetBrains Mono;" vertex="1" parent="7-WvRMnmt2qf-db6xI5E-18">
          <mxGeometry x="180" width="60" height="30" as="geometry">
            <mxRectangle width="60" height="30" as="alternateBounds" />
          </mxGeometry>
        </mxCell>
        <mxCell id="7-WvRMnmt2qf-db6xI5E-23" style="shape=tableRow;horizontal=0;startSize=0;swimlaneHead=0;swimlaneBody=0;top=0;left=0;bottom=0;right=0;collapsible=0;dropTarget=0;fillColor=none;points=[[0,0.5],[1,0.5]];portConstraint=eastwest;fontSize=13;" vertex="1" parent="rOHQztOY-HzWtF0UON7x-2">
          <mxGeometry y="180" width="240" height="30" as="geometry" />
        </mxCell>
        <mxCell id="7-WvRMnmt2qf-db6xI5E-24" value="0" style="shape=partialRectangle;html=1;whiteSpace=wrap;connectable=0;fillColor=none;top=0;left=0;bottom=0;right=0;overflow=hidden;fontSize=13;fontFamily=JetBrains Mono;" vertex="1" parent="7-WvRMnmt2qf-db6xI5E-23">
          <mxGeometry width="60" height="30" as="geometry">
            <mxRectangle width="60" height="30" as="alternateBounds" />
          </mxGeometry>
        </mxCell>
        <mxCell id="7-WvRMnmt2qf-db6xI5E-25" value="0" style="shape=partialRectangle;html=1;whiteSpace=wrap;connectable=0;fillColor=none;top=0;left=0;bottom=0;right=0;overflow=hidden;fontSize=13;fontFamily=JetBrains Mono;" vertex="1" parent="7-WvRMnmt2qf-db6xI5E-23">
          <mxGeometry x="60" width="60" height="30" as="geometry">
            <mxRectangle width="60" height="30" as="alternateBounds" />
          </mxGeometry>
        </mxCell>
        <mxCell id="7-WvRMnmt2qf-db6xI5E-26" value="1" style="shape=partialRectangle;html=1;whiteSpace=wrap;connectable=0;fillColor=none;top=0;left=0;bottom=0;right=0;overflow=hidden;fontSize=13;fontFamily=JetBrains Mono;" vertex="1" parent="7-WvRMnmt2qf-db6xI5E-23">
          <mxGeometry x="120" width="60" height="30" as="geometry">
            <mxRectangle width="60" height="30" as="alternateBounds" />
          </mxGeometry>
        </mxCell>
        <mxCell id="7-WvRMnmt2qf-db6xI5E-27" value="0" style="shape=partialRectangle;html=1;whiteSpace=wrap;connectable=0;fillColor=none;top=0;left=0;bottom=0;right=0;overflow=hidden;fontSize=13;fontFamily=JetBrains Mono;" vertex="1" parent="7-WvRMnmt2qf-db6xI5E-23">
          <mxGeometry x="180" width="60" height="30" as="geometry">
            <mxRectangle width="60" height="30" as="alternateBounds" />
          </mxGeometry>
        </mxCell>
        <mxCell id="7-WvRMnmt2qf-db6xI5E-28" style="shape=tableRow;horizontal=0;startSize=0;swimlaneHead=0;swimlaneBody=0;top=0;left=0;bottom=0;right=0;collapsible=0;dropTarget=0;fillColor=none;points=[[0,0.5],[1,0.5]];portConstraint=eastwest;fontSize=13;" vertex="1" parent="rOHQztOY-HzWtF0UON7x-2">
          <mxGeometry y="210" width="240" height="30" as="geometry" />
        </mxCell>
        <mxCell id="7-WvRMnmt2qf-db6xI5E-29" value="1" style="shape=partialRectangle;html=1;whiteSpace=wrap;connectable=0;fillColor=none;top=0;left=0;bottom=0;right=0;overflow=hidden;fontSize=13;fontFamily=JetBrains Mono;" vertex="1" parent="7-WvRMnmt2qf-db6xI5E-28">
          <mxGeometry width="60" height="30" as="geometry">
            <mxRectangle width="60" height="30" as="alternateBounds" />
          </mxGeometry>
        </mxCell>
        <mxCell id="7-WvRMnmt2qf-db6xI5E-30" value="0" style="shape=partialRectangle;html=1;whiteSpace=wrap;connectable=0;fillColor=none;top=0;left=0;bottom=0;right=0;overflow=hidden;fontSize=13;fontFamily=JetBrains Mono;" vertex="1" parent="7-WvRMnmt2qf-db6xI5E-28">
          <mxGeometry x="60" width="60" height="30" as="geometry">
            <mxRectangle width="60" height="30" as="alternateBounds" />
          </mxGeometry>
        </mxCell>
        <mxCell id="7-WvRMnmt2qf-db6xI5E-31" value="1" style="shape=partialRectangle;html=1;whiteSpace=wrap;connectable=0;fillColor=none;top=0;left=0;bottom=0;right=0;overflow=hidden;fontSize=13;fontFamily=JetBrains Mono;" vertex="1" parent="7-WvRMnmt2qf-db6xI5E-28">
          <mxGeometry x="120" width="60" height="30" as="geometry">
            <mxRectangle width="60" height="30" as="alternateBounds" />
          </mxGeometry>
        </mxCell>
        <mxCell id="7-WvRMnmt2qf-db6xI5E-32" value="0" style="shape=partialRectangle;html=1;whiteSpace=wrap;connectable=0;fillColor=none;top=0;left=0;bottom=0;right=0;overflow=hidden;fontSize=13;fontFamily=JetBrains Mono;" vertex="1" parent="7-WvRMnmt2qf-db6xI5E-28">
          <mxGeometry x="180" width="60" height="30" as="geometry">
            <mxRectangle width="60" height="30" as="alternateBounds" />
          </mxGeometry>
        </mxCell>
        <mxCell id="7-WvRMnmt2qf-db6xI5E-33" style="shape=tableRow;horizontal=0;startSize=0;swimlaneHead=0;swimlaneBody=0;top=0;left=0;bottom=0;right=0;collapsible=0;dropTarget=0;fillColor=none;points=[[0,0.5],[1,0.5]];portConstraint=eastwest;fontSize=13;" vertex="1" parent="rOHQztOY-HzWtF0UON7x-2">
          <mxGeometry y="240" width="240" height="30" as="geometry" />
        </mxCell>
        <mxCell id="7-WvRMnmt2qf-db6xI5E-34" value="0" style="shape=partialRectangle;html=1;whiteSpace=wrap;connectable=0;fillColor=none;top=0;left=0;bottom=0;right=0;overflow=hidden;fontSize=13;fontFamily=JetBrains Mono;" vertex="1" parent="7-WvRMnmt2qf-db6xI5E-33">
          <mxGeometry width="60" height="30" as="geometry">
            <mxRectangle width="60" height="30" as="alternateBounds" />
          </mxGeometry>
        </mxCell>
        <mxCell id="7-WvRMnmt2qf-db6xI5E-35" value="1" style="shape=partialRectangle;html=1;whiteSpace=wrap;connectable=0;fillColor=none;top=0;left=0;bottom=0;right=0;overflow=hidden;fontSize=13;fontFamily=JetBrains Mono;" vertex="1" parent="7-WvRMnmt2qf-db6xI5E-33">
          <mxGeometry x="60" width="60" height="30" as="geometry">
            <mxRectangle width="60" height="30" as="alternateBounds" />
          </mxGeometry>
        </mxCell>
        <mxCell id="7-WvRMnmt2qf-db6xI5E-36" value="1" style="shape=partialRectangle;html=1;whiteSpace=wrap;connectable=0;fillColor=none;top=0;left=0;bottom=0;right=0;overflow=hidden;fontSize=13;fontFamily=JetBrains Mono;" vertex="1" parent="7-WvRMnmt2qf-db6xI5E-33">
          <mxGeometry x="120" width="60" height="30" as="geometry">
            <mxRectangle width="60" height="30" as="alternateBounds" />
          </mxGeometry>
        </mxCell>
        <mxCell id="7-WvRMnmt2qf-db6xI5E-37" value="1" style="shape=partialRectangle;html=1;whiteSpace=wrap;connectable=0;fillColor=none;top=0;left=0;bottom=0;right=0;overflow=hidden;fontSize=13;fontFamily=JetBrains Mono;" vertex="1" parent="7-WvRMnmt2qf-db6xI5E-33">
          <mxGeometry x="180" width="60" height="30" as="geometry">
            <mxRectangle width="60" height="30" as="alternateBounds" />
          </mxGeometry>
        </mxCell>
        <mxCell id="7-WvRMnmt2qf-db6xI5E-38" style="shape=tableRow;horizontal=0;startSize=0;swimlaneHead=0;swimlaneBody=0;top=0;left=0;bottom=0;right=0;collapsible=0;dropTarget=0;fillColor=none;points=[[0,0.5],[1,0.5]];portConstraint=eastwest;fontSize=13;" vertex="1" parent="rOHQztOY-HzWtF0UON7x-2">
          <mxGeometry y="270" width="240" height="30" as="geometry" />
        </mxCell>
        <mxCell id="7-WvRMnmt2qf-db6xI5E-39" value="1" style="shape=partialRectangle;html=1;whiteSpace=wrap;connectable=0;fillColor=none;top=0;left=0;bottom=0;right=0;overflow=hidden;fontSize=13;fontFamily=JetBrains Mono;" vertex="1" parent="7-WvRMnmt2qf-db6xI5E-38">
          <mxGeometry width="60" height="30" as="geometry">
            <mxRectangle width="60" height="30" as="alternateBounds" />
          </mxGeometry>
        </mxCell>
        <mxCell id="7-WvRMnmt2qf-db6xI5E-40" value="1" style="shape=partialRectangle;html=1;whiteSpace=wrap;connectable=0;fillColor=none;top=0;left=0;bottom=0;right=0;overflow=hidden;fontSize=13;fontFamily=JetBrains Mono;" vertex="1" parent="7-WvRMnmt2qf-db6xI5E-38">
          <mxGeometry x="60" width="60" height="30" as="geometry">
            <mxRectangle width="60" height="30" as="alternateBounds" />
          </mxGeometry>
        </mxCell>
        <mxCell id="7-WvRMnmt2qf-db6xI5E-41" value="1" style="shape=partialRectangle;html=1;whiteSpace=wrap;connectable=0;fillColor=none;top=0;left=0;bottom=0;right=0;overflow=hidden;fontSize=13;fontFamily=JetBrains Mono;" vertex="1" parent="7-WvRMnmt2qf-db6xI5E-38">
          <mxGeometry x="120" width="60" height="30" as="geometry">
            <mxRectangle width="60" height="30" as="alternateBounds" />
          </mxGeometry>
        </mxCell>
        <mxCell id="7-WvRMnmt2qf-db6xI5E-42" value="1" style="shape=partialRectangle;html=1;whiteSpace=wrap;connectable=0;fillColor=none;top=0;left=0;bottom=0;right=0;overflow=hidden;fontSize=13;fontFamily=JetBrains Mono;" vertex="1" parent="7-WvRMnmt2qf-db6xI5E-38">
          <mxGeometry x="180" width="60" height="30" as="geometry">
            <mxRectangle width="60" height="30" as="alternateBounds" />
          </mxGeometry>
        </mxCell>
        <mxCell id="rOHQztOY-HzWtF0UON7x-12" value="" style="triangle;whiteSpace=wrap;html=1;fontFamily=JetBrains Mono;fontSize=13;" vertex="1" parent="1">
          <mxGeometry x="280" y="80" width="90" height="120" as="geometry" />
        </mxCell>
        <mxCell id="rOHQztOY-HzWtF0UON7x-14" value="" style="endArrow=classic;html=1;rounded=0;fontFamily=JetBrains Mono;fontSize=13;entryX=0;entryY=0.5;entryDx=0;entryDy=0;strokeWidth=2;" edge="1" parent="1">
          <mxGeometry width="50" height="50" relative="1" as="geometry">
            <mxPoint x="230" y="111" as="sourcePoint" />
            <mxPoint x="280" y="111" as="targetPoint" />
          </mxGeometry>
        </mxCell>
        <mxCell id="rOHQztOY-HzWtF0UON7x-15" value="" style="endArrow=classic;html=1;rounded=0;fontFamily=JetBrains Mono;fontSize=13;strokeWidth=2;" edge="1" parent="1">
          <mxGeometry width="50" height="50" relative="1" as="geometry">
            <mxPoint x="370" y="140.5" as="sourcePoint" />
            <mxPoint x="410" y="141" as="targetPoint" />
          </mxGeometry>
        </mxCell>
        <mxCell id="rOHQztOY-HzWtF0UON7x-16" value="&lt;b&gt;MUX&lt;/b&gt;" style="text;html=1;strokeColor=none;fillColor=none;align=center;verticalAlign=middle;whiteSpace=wrap;rounded=0;fontFamily=JetBrains Mono;fontSize=13;" vertex="1" parent="1">
          <mxGeometry x="285" y="125" width="60" height="30" as="geometry" />
        </mxCell>
        <mxCell id="rOHQztOY-HzWtF0UON7x-17" value="&lt;i&gt;out&lt;/i&gt;" style="text;html=1;strokeColor=none;fillColor=none;align=center;verticalAlign=middle;whiteSpace=wrap;rounded=0;fontFamily=JetBrains Mono;fontSize=13;" vertex="1" parent="1">
          <mxGeometry x="393" y="138" width="60" height="30" as="geometry" />
        </mxCell>
        <mxCell id="rOHQztOY-HzWtF0UON7x-18" value="MUX(&lt;i&gt;a,b,sel&lt;/i&gt;) = OR(AND(&lt;i&gt;a&lt;/i&gt;, NOT(&lt;i&gt;sel&lt;/i&gt;)), AND(&lt;i&gt;b&lt;/i&gt;, &lt;i&gt;sel&lt;/i&gt;))" style="text;html=1;strokeColor=none;fillColor=none;align=center;verticalAlign=middle;whiteSpace=wrap;rounded=0;fontFamily=JetBrains Mono;fontSize=13;labelBorderColor=none;" vertex="1" parent="1">
          <mxGeometry x="77" y="230" width="389" height="30" as="geometry" />
        </mxCell>
        <mxCell id="rOHQztOY-HzWtF0UON7x-19" value="a" style="text;html=1;strokeColor=none;fillColor=none;align=center;verticalAlign=middle;whiteSpace=wrap;rounded=0;fontFamily=JetBrains Mono;fontSize=13;fontStyle=2" vertex="1" parent="1">
          <mxGeometry x="190" y="80" width="60" height="30" as="geometry" />
        </mxCell>
        <mxCell id="0OYwAmRWhGjBcT1rb5wE-2" value="" style="endArrow=classic;html=1;rounded=0;fontFamily=JetBrains Mono;fontSize=13;entryX=0;entryY=0.5;entryDx=0;entryDy=0;strokeWidth=2;" edge="1" parent="1">
          <mxGeometry width="50" height="50" relative="1" as="geometry">
            <mxPoint x="230" y="170" as="sourcePoint" />
            <mxPoint x="280" y="170" as="targetPoint" />
          </mxGeometry>
        </mxCell>
        <mxCell id="7-WvRMnmt2qf-db6xI5E-1" value="b" style="text;html=1;strokeColor=none;fillColor=none;align=center;verticalAlign=middle;whiteSpace=wrap;rounded=0;fontFamily=JetBrains Mono;fontSize=13;fontStyle=2" vertex="1" parent="1">
          <mxGeometry x="190" y="140" width="60" height="30" as="geometry" />
        </mxCell>
        <mxCell id="7-WvRMnmt2qf-db6xI5E-2" value="" style="endArrow=classic;html=1;rounded=0;fontFamily=JetBrains Mono;fontSize=13;entryX=0;entryY=0.5;entryDx=0;entryDy=0;strokeWidth=2;" edge="1" parent="1">
          <mxGeometry width="50" height="50" relative="1" as="geometry">
            <mxPoint x="324.5" y="212" as="sourcePoint" />
            <mxPoint x="324.5" y="172" as="targetPoint" />
            <Array as="points">
              <mxPoint x="324.5" y="190" />
            </Array>
          </mxGeometry>
        </mxCell>
        <mxCell id="7-WvRMnmt2qf-db6xI5E-3" value="sel" style="text;html=1;strokeColor=none;fillColor=none;align=center;verticalAlign=middle;whiteSpace=wrap;rounded=0;fontFamily=JetBrains Mono;fontSize=13;fontStyle=2" vertex="1" parent="1">
          <mxGeometry x="320" y="200" width="60" height="30" as="geometry" />
        </mxCell>
      </root>
    </mxGraphModel>
  </diagram>
  <diagram id="axETXr1PTk0kl3CTAjJj" name="DMUX">
    <mxGraphModel dx="946" dy="587" grid="1" gridSize="10" guides="1" tooltips="1" connect="1" arrows="1" fold="1" page="1" pageScale="1" pageWidth="850" pageHeight="1100" math="0" shadow="0">
      <root>
        <mxCell id="0" />
        <mxCell id="1" parent="0" />
        <mxCell id="gloKL-8PmlSZp4hiJ1Q_-1" value="" style="rounded=0;whiteSpace=wrap;html=1;labelBorderColor=none;fontFamily=JetBrains Mono;fontSize=13;" vertex="1" parent="1">
          <mxGeometry x="228" y="229" width="424" height="30" as="geometry" />
        </mxCell>
        <mxCell id="gloKL-8PmlSZp4hiJ1Q_-2" value="DMUX(in,sel)" style="shape=table;startSize=30;container=1;collapsible=0;childLayout=tableLayout;fontStyle=1;align=center;fontSize=13;fontFamily=JetBrains Mono;" vertex="1" parent="1">
          <mxGeometry x="480" y="80" width="180" height="120" as="geometry" />
        </mxCell>
        <mxCell id="gloKL-8PmlSZp4hiJ1Q_-3" value="" style="shape=tableRow;horizontal=0;startSize=0;swimlaneHead=0;swimlaneBody=0;top=0;left=0;bottom=0;right=0;collapsible=0;dropTarget=0;fillColor=none;points=[[0,0.5],[1,0.5]];portConstraint=eastwest;fontSize=13;" vertex="1" parent="gloKL-8PmlSZp4hiJ1Q_-2">
          <mxGeometry y="30" width="180" height="30" as="geometry" />
        </mxCell>
        <mxCell id="gloKL-8PmlSZp4hiJ1Q_-5" value="sel" style="shape=partialRectangle;html=1;whiteSpace=wrap;connectable=0;fillColor=none;top=0;left=0;bottom=0;right=0;overflow=hidden;fontSize=13;fontFamily=JetBrains Mono;fontStyle=2" vertex="1" parent="gloKL-8PmlSZp4hiJ1Q_-3">
          <mxGeometry width="60" height="30" as="geometry">
            <mxRectangle width="60" height="30" as="alternateBounds" />
          </mxGeometry>
        </mxCell>
        <mxCell id="gloKL-8PmlSZp4hiJ1Q_-6" value="a" style="shape=partialRectangle;html=1;whiteSpace=wrap;connectable=0;fillColor=none;top=0;left=0;bottom=0;right=0;overflow=hidden;fontSize=13;fontFamily=JetBrains Mono;fontStyle=2" vertex="1" parent="gloKL-8PmlSZp4hiJ1Q_-3">
          <mxGeometry x="60" width="60" height="30" as="geometry">
            <mxRectangle width="60" height="30" as="alternateBounds" />
          </mxGeometry>
        </mxCell>
        <mxCell id="gloKL-8PmlSZp4hiJ1Q_-7" value="b" style="shape=partialRectangle;html=1;whiteSpace=wrap;connectable=0;fillColor=none;top=0;left=0;bottom=0;right=0;overflow=hidden;fontSize=13;fontFamily=JetBrains Mono;fontStyle=2" vertex="1" parent="gloKL-8PmlSZp4hiJ1Q_-3">
          <mxGeometry x="120" width="60" height="30" as="geometry">
            <mxRectangle width="60" height="30" as="alternateBounds" />
          </mxGeometry>
        </mxCell>
        <mxCell id="gloKL-8PmlSZp4hiJ1Q_-8" value="" style="shape=tableRow;horizontal=0;startSize=0;swimlaneHead=0;swimlaneBody=0;top=0;left=0;bottom=0;right=0;collapsible=0;dropTarget=0;fillColor=none;points=[[0,0.5],[1,0.5]];portConstraint=eastwest;fontSize=13;" vertex="1" parent="gloKL-8PmlSZp4hiJ1Q_-2">
          <mxGeometry y="60" width="180" height="30" as="geometry" />
        </mxCell>
        <mxCell id="gloKL-8PmlSZp4hiJ1Q_-10" value="0" style="shape=partialRectangle;html=1;whiteSpace=wrap;connectable=0;fillColor=none;top=0;left=0;bottom=0;right=0;overflow=hidden;fontSize=13;fontFamily=JetBrains Mono;" vertex="1" parent="gloKL-8PmlSZp4hiJ1Q_-8">
          <mxGeometry width="60" height="30" as="geometry">
            <mxRectangle width="60" height="30" as="alternateBounds" />
          </mxGeometry>
        </mxCell>
        <mxCell id="gloKL-8PmlSZp4hiJ1Q_-11" value="0" style="shape=partialRectangle;html=1;whiteSpace=wrap;connectable=0;fillColor=none;top=0;left=0;bottom=0;right=0;overflow=hidden;fontSize=13;fontFamily=JetBrains Mono;" vertex="1" parent="gloKL-8PmlSZp4hiJ1Q_-8">
          <mxGeometry x="60" width="60" height="30" as="geometry">
            <mxRectangle width="60" height="30" as="alternateBounds" />
          </mxGeometry>
        </mxCell>
        <mxCell id="gloKL-8PmlSZp4hiJ1Q_-12" value="in" style="shape=partialRectangle;html=1;whiteSpace=wrap;connectable=0;fillColor=none;top=0;left=0;bottom=0;right=0;overflow=hidden;fontSize=13;fontFamily=JetBrains Mono;" vertex="1" parent="gloKL-8PmlSZp4hiJ1Q_-8">
          <mxGeometry x="120" width="60" height="30" as="geometry">
            <mxRectangle width="60" height="30" as="alternateBounds" />
          </mxGeometry>
        </mxCell>
        <mxCell id="gloKL-8PmlSZp4hiJ1Q_-13" value="" style="shape=tableRow;horizontal=0;startSize=0;swimlaneHead=0;swimlaneBody=0;top=0;left=0;bottom=0;right=0;collapsible=0;dropTarget=0;fillColor=none;points=[[0,0.5],[1,0.5]];portConstraint=eastwest;fontSize=13;" vertex="1" parent="gloKL-8PmlSZp4hiJ1Q_-2">
          <mxGeometry y="90" width="180" height="30" as="geometry" />
        </mxCell>
        <mxCell id="gloKL-8PmlSZp4hiJ1Q_-15" value="1" style="shape=partialRectangle;html=1;whiteSpace=wrap;connectable=0;fillColor=none;top=0;left=0;bottom=0;right=0;overflow=hidden;fontSize=13;fontFamily=JetBrains Mono;" vertex="1" parent="gloKL-8PmlSZp4hiJ1Q_-13">
          <mxGeometry width="60" height="30" as="geometry">
            <mxRectangle width="60" height="30" as="alternateBounds" />
          </mxGeometry>
        </mxCell>
        <mxCell id="gloKL-8PmlSZp4hiJ1Q_-16" value="in" style="shape=partialRectangle;html=1;whiteSpace=wrap;connectable=0;fillColor=none;top=0;left=0;bottom=0;right=0;overflow=hidden;fontSize=13;fontFamily=JetBrains Mono;" vertex="1" parent="gloKL-8PmlSZp4hiJ1Q_-13">
          <mxGeometry x="60" width="60" height="30" as="geometry">
            <mxRectangle width="60" height="30" as="alternateBounds" />
          </mxGeometry>
        </mxCell>
        <mxCell id="gloKL-8PmlSZp4hiJ1Q_-17" value="0" style="shape=partialRectangle;html=1;whiteSpace=wrap;connectable=0;fillColor=none;top=0;left=0;bottom=0;right=0;overflow=hidden;fontSize=13;fontFamily=JetBrains Mono;" vertex="1" parent="gloKL-8PmlSZp4hiJ1Q_-13">
          <mxGeometry x="120" width="60" height="30" as="geometry">
            <mxRectangle width="60" height="30" as="alternateBounds" />
          </mxGeometry>
        </mxCell>
        <mxCell id="gloKL-8PmlSZp4hiJ1Q_-48" value="" style="triangle;whiteSpace=wrap;html=1;fontFamily=JetBrains Mono;fontSize=13;rotation=-180;" vertex="1" parent="1">
          <mxGeometry x="280" y="80" width="90" height="120" as="geometry" />
        </mxCell>
        <mxCell id="gloKL-8PmlSZp4hiJ1Q_-50" value="" style="endArrow=classic;html=1;rounded=0;fontFamily=JetBrains Mono;fontSize=13;entryX=0;entryY=0.5;entryDx=0;entryDy=0;strokeWidth=2;" edge="1" parent="1">
          <mxGeometry width="50" height="50" relative="1" as="geometry">
            <mxPoint x="370" y="111" as="sourcePoint" />
            <mxPoint x="420" y="111" as="targetPoint" />
          </mxGeometry>
        </mxCell>
        <mxCell id="gloKL-8PmlSZp4hiJ1Q_-51" value="" style="endArrow=classic;html=1;rounded=0;fontFamily=JetBrains Mono;fontSize=13;strokeWidth=2;" edge="1" parent="1">
          <mxGeometry width="50" height="50" relative="1" as="geometry">
            <mxPoint x="241" y="139.5" as="sourcePoint" />
            <mxPoint x="281" y="140" as="targetPoint" />
          </mxGeometry>
        </mxCell>
        <mxCell id="gloKL-8PmlSZp4hiJ1Q_-52" value="&lt;b&gt;DMUX&lt;/b&gt;" style="text;html=1;strokeColor=none;fillColor=none;align=center;verticalAlign=middle;whiteSpace=wrap;rounded=0;fontFamily=JetBrains Mono;fontSize=13;" vertex="1" parent="1">
          <mxGeometry x="310" y="125" width="60" height="30" as="geometry" />
        </mxCell>
        <mxCell id="gloKL-8PmlSZp4hiJ1Q_-53" value="&lt;i&gt;in&lt;/i&gt;" style="text;html=1;strokeColor=none;fillColor=none;align=center;verticalAlign=middle;whiteSpace=wrap;rounded=0;fontFamily=JetBrains Mono;fontSize=13;" vertex="1" parent="1">
          <mxGeometry x="200" y="110" width="60" height="30" as="geometry" />
        </mxCell>
        <mxCell id="gloKL-8PmlSZp4hiJ1Q_-54" value="DMUX(&lt;i&gt;in,sel&lt;/i&gt;) = {a=AND(in, NOT(sel)), b=AND(in, sel)}" style="text;html=1;strokeColor=none;fillColor=none;align=center;verticalAlign=middle;whiteSpace=wrap;rounded=0;fontFamily=JetBrains Mono;fontSize=13;labelBorderColor=none;" vertex="1" parent="1">
          <mxGeometry x="235" y="229" width="410" height="30" as="geometry" />
        </mxCell>
        <mxCell id="gloKL-8PmlSZp4hiJ1Q_-55" value="a" style="text;html=1;strokeColor=none;fillColor=none;align=center;verticalAlign=middle;whiteSpace=wrap;rounded=0;fontFamily=JetBrains Mono;fontSize=13;fontStyle=2" vertex="1" parent="1">
          <mxGeometry x="394" y="107" width="60" height="30" as="geometry" />
        </mxCell>
        <mxCell id="gloKL-8PmlSZp4hiJ1Q_-56" value="" style="endArrow=classic;html=1;rounded=0;fontFamily=JetBrains Mono;fontSize=13;entryX=0;entryY=0.5;entryDx=0;entryDy=0;strokeWidth=2;" edge="1" parent="1">
          <mxGeometry width="50" height="50" relative="1" as="geometry">
            <mxPoint x="370" y="170" as="sourcePoint" />
            <mxPoint x="420" y="170" as="targetPoint" />
          </mxGeometry>
        </mxCell>
        <mxCell id="gloKL-8PmlSZp4hiJ1Q_-57" value="b" style="text;html=1;strokeColor=none;fillColor=none;align=center;verticalAlign=middle;whiteSpace=wrap;rounded=0;fontFamily=JetBrains Mono;fontSize=13;fontStyle=2" vertex="1" parent="1">
          <mxGeometry x="395" y="167" width="60" height="30" as="geometry" />
        </mxCell>
        <mxCell id="gloKL-8PmlSZp4hiJ1Q_-58" value="" style="endArrow=classic;html=1;rounded=0;fontFamily=JetBrains Mono;fontSize=13;entryX=0;entryY=0.5;entryDx=0;entryDy=0;strokeWidth=2;" edge="1" parent="1">
          <mxGeometry width="50" height="50" relative="1" as="geometry">
            <mxPoint x="324.5" y="212" as="sourcePoint" />
            <mxPoint x="324.5" y="172" as="targetPoint" />
            <Array as="points">
              <mxPoint x="324.5" y="190" />
            </Array>
          </mxGeometry>
        </mxCell>
        <mxCell id="gloKL-8PmlSZp4hiJ1Q_-59" value="sel" style="text;html=1;strokeColor=none;fillColor=none;align=center;verticalAlign=middle;whiteSpace=wrap;rounded=0;fontFamily=JetBrains Mono;fontSize=13;fontStyle=2" vertex="1" parent="1">
          <mxGeometry x="320" y="200" width="60" height="30" as="geometry" />
        </mxCell>
      </root>
    </mxGraphModel>
  </diagram>
</mxfile>
